<?xml version="1.0" encoding="utf-8" standalone="no"?>
<!DOCTYPE svg PUBLIC "-//W3C//DTD SVG 1.1//EN"
  "http://www.w3.org/Graphics/SVG/1.1/DTD/svg11.dtd">
<svg xmlns:xlink="http://www.w3.org/1999/xlink" width="411.285625pt" height="297.190125pt" viewBox="0 0 411.285625 297.190125" xmlns="http://www.w3.org/2000/svg" version="1.1">
 <metadata>
  <rdf:RDF xmlns:dc="http://purl.org/dc/elements/1.1/" xmlns:cc="http://creativecommons.org/ns#" xmlns:rdf="http://www.w3.org/1999/02/22-rdf-syntax-ns#">
   <cc:Work>
    <dc:type rdf:resource="http://purl.org/dc/dcmitype/StillImage"/>
    <dc:date>2026-05-03T15:46:00.846953</dc:date>
    <dc:format>image/svg+xml</dc:format>
    <dc:creator>
     <cc:Agent>
      <dc:title>Matplotlib v3.6.3, https://matplotlib.org/</dc:title>
     </cc:Agent>
    </dc:creator>
   </cc:Work>
  </rdf:RDF>
 </metadata>
 <defs>
  <style type="text/css">*{stroke-linejoin: round; stroke-linecap: butt}</style>
 </defs>
 <g id="figure_1">
  <g id="patch_1">
   <path d="M 0 297.190125 
L 411.285625 297.190125 
L 411.285625 0 
L 0 0 
z
" style="fill: #ffffff"/>
  </g>
  <g id="axes_1">
   <g id="patch_2">
    <path d="M 46.965625 273.312 
L 404.085625 273.312 
L 404.085625 7.2 
L 46.965625 7.2 
z
" style="fill: #ffffff"/>
   </g>
   <g id="matplotlib.axis_1">
    <g id="xtick_1">
     <g id="line2d_1">
      <path d="M 63.176707 273.312 
L 63.176707 7.2 
" clip-path="url(#p715eb22ad0)" style="fill: none; stroke: #b0b0b0; stroke-width: 0.8; stroke-linecap: square"/>
     </g>
     <g id="line2d_2">
      <defs>
       <path id="m0377f23d68" d="M 0 0 
L 0 3.5 
" style="stroke: #000000; stroke-width: 0.8"/>
      </defs>
      <g>
       <use xlink:href="#m0377f23d68" x="63.176707" y="273.312" style="stroke: #000000; stroke-width: 0.8"/>
      </g>
     </g>
     <g id="text_1">
      <!-- 0 -->
      <g transform="translate(59.995457 287.910437) scale(0.1 -0.1)">
       <defs>
        <path id="DejaVuSans-30" d="M 2034 4250 
Q 1547 4250 1301 3770 
Q 1056 3291 1056 2328 
Q 1056 1369 1301 889 
Q 1547 409 2034 409 
Q 2525 409 2770 889 
Q 3016 1369 3016 2328 
Q 3016 3291 2770 3770 
Q 2525 4250 2034 4250 
z
M 2034 4750 
Q 2819 4750 3233 4129 
Q 3647 3509 3647 2328 
Q 3647 1150 3233 529 
Q 2819 -91 2034 -91 
Q 1250 -91 836 529 
Q 422 1150 422 2328 
Q 422 3509 836 4129 
Q 1250 4750 2034 4750 
z
" transform="scale(0.015625)"/>
       </defs>
       <use xlink:href="#DejaVuSans-30"/>
      </g>
     </g>
    </g>
    <g id="xtick_2">
     <g id="line2d_3">
      <path d="M 106.466873 273.312 
L 106.466873 7.2 
" clip-path="url(#p715eb22ad0)" style="fill: none; stroke: #b0b0b0; stroke-width: 0.8; stroke-linecap: square"/>
     </g>
     <g id="line2d_4">
      <g>
       <use xlink:href="#m0377f23d68" x="106.466873" y="273.312" style="stroke: #000000; stroke-width: 0.8"/>
      </g>
     </g>
     <g id="text_2">
      <!-- 20 -->
      <g transform="translate(100.104373 287.910437) scale(0.1 -0.1)">
       <defs>
        <path id="DejaVuSans-32" d="M 1228 531 
L 3431 531 
L 3431 0 
L 469 0 
L 469 531 
Q 828 903 1448 1529 
Q 2069 2156 2228 2338 
Q 2531 2678 2651 2914 
Q 2772 3150 2772 3378 
Q 2772 3750 2511 3984 
Q 2250 4219 1831 4219 
Q 1534 4219 1204 4116 
Q 875 4013 500 3803 
L 500 4441 
Q 881 4594 1212 4672 
Q 1544 4750 1819 4750 
Q 2544 4750 2975 4387 
Q 3406 4025 3406 3419 
Q 3406 3131 3298 2873 
Q 3191 2616 2906 2266 
Q 2828 2175 2409 1742 
Q 1991 1309 1228 531 
z
" transform="scale(0.015625)"/>
       </defs>
       <use xlink:href="#DejaVuSans-32"/>
       <use xlink:href="#DejaVuSans-30" x="63.623047"/>
      </g>
     </g>
    </g>
    <g id="xtick_3">
     <g id="line2d_5">
      <path d="M 149.75704 273.312 
L 149.75704 7.2 
" clip-path="url(#p715eb22ad0)" style="fill: none; stroke: #b0b0b0; stroke-width: 0.8; stroke-linecap: square"/>
     </g>
     <g id="line2d_6">
      <g>
       <use xlink:href="#m0377f23d68" x="149.75704" y="273.312" style="stroke: #000000; stroke-width: 0.8"/>
      </g>
     </g>
     <g id="text_3">
      <!-- 40 -->
      <g transform="translate(143.39454 287.910437) scale(0.1 -0.1)">
       <defs>
        <path id="DejaVuSans-34" d="M 2419 4116 
L 825 1625 
L 2419 1625 
L 2419 4116 
z
M 2253 4666 
L 3047 4666 
L 3047 1625 
L 3713 1625 
L 3713 1100 
L 3047 1100 
L 3047 0 
L 2419 0 
L 2419 1100 
L 313 1100 
L 313 1709 
L 2253 4666 
z
" transform="scale(0.015625)"/>
       </defs>
       <use xlink:href="#DejaVuSans-34"/>
       <use xlink:href="#DejaVuSans-30" x="63.623047"/>
      </g>
     </g>
    </g>
    <g id="xtick_4">
     <g id="line2d_7">
      <path d="M 193.047207 273.312 
L 193.047207 7.2 
" clip-path="url(#p715eb22ad0)" style="fill: none; stroke: #b0b0b0; stroke-width: 0.8; stroke-linecap: square"/>
     </g>
     <g id="line2d_8">
      <g>
       <use xlink:href="#m0377f23d68" x="193.047207" y="273.312" style="stroke: #000000; stroke-width: 0.8"/>
      </g>
     </g>
     <g id="text_4">
      <!-- 60 -->
      <g transform="translate(186.684707 287.910437) scale(0.1 -0.1)">
       <defs>
        <path id="DejaVuSans-36" d="M 2113 2584 
Q 1688 2584 1439 2293 
Q 1191 2003 1191 1497 
Q 1191 994 1439 701 
Q 1688 409 2113 409 
Q 2538 409 2786 701 
Q 3034 994 3034 1497 
Q 3034 2003 2786 2293 
Q 2538 2584 2113 2584 
z
M 3366 4563 
L 3366 3988 
Q 3128 4100 2886 4159 
Q 2644 4219 2406 4219 
Q 1781 4219 1451 3797 
Q 1122 3375 1075 2522 
Q 1259 2794 1537 2939 
Q 1816 3084 2150 3084 
Q 2853 3084 3261 2657 
Q 3669 2231 3669 1497 
Q 3669 778 3244 343 
Q 2819 -91 2113 -91 
Q 1303 -91 875 529 
Q 447 1150 447 2328 
Q 447 3434 972 4092 
Q 1497 4750 2381 4750 
Q 2619 4750 2861 4703 
Q 3103 4656 3366 4563 
z
" transform="scale(0.015625)"/>
       </defs>
       <use xlink:href="#DejaVuSans-36"/>
       <use xlink:href="#DejaVuSans-30" x="63.623047"/>
      </g>
     </g>
    </g>
    <g id="xtick_5">
     <g id="line2d_9">
      <path d="M 236.337373 273.312 
L 236.337373 7.2 
" clip-path="url(#p715eb22ad0)" style="fill: none; stroke: #b0b0b0; stroke-width: 0.8; stroke-linecap: square"/>
     </g>
     <g id="line2d_10">
      <g>
       <use xlink:href="#m0377f23d68" x="236.337373" y="273.312" style="stroke: #000000; stroke-width: 0.8"/>
      </g>
     </g>
     <g id="text_5">
      <!-- 80 -->
      <g transform="translate(229.974873 287.910437) scale(0.1 -0.1)">
       <defs>
        <path id="DejaVuSans-38" d="M 2034 2216 
Q 1584 2216 1326 1975 
Q 1069 1734 1069 1313 
Q 1069 891 1326 650 
Q 1584 409 2034 409 
Q 2484 409 2743 651 
Q 3003 894 3003 1313 
Q 3003 1734 2745 1975 
Q 2488 2216 2034 2216 
z
M 1403 2484 
Q 997 2584 770 2862 
Q 544 3141 544 3541 
Q 544 4100 942 4425 
Q 1341 4750 2034 4750 
Q 2731 4750 3128 4425 
Q 3525 4100 3525 3541 
Q 3525 3141 3298 2862 
Q 3072 2584 2669 2484 
Q 3125 2378 3379 2068 
Q 3634 1759 3634 1313 
Q 3634 634 3220 271 
Q 2806 -91 2034 -91 
Q 1263 -91 848 271 
Q 434 634 434 1313 
Q 434 1759 690 2068 
Q 947 2378 1403 2484 
z
M 1172 3481 
Q 1172 3119 1398 2916 
Q 1625 2713 2034 2713 
Q 2441 2713 2670 2916 
Q 2900 3119 2900 3481 
Q 2900 3844 2670 4047 
Q 2441 4250 2034 4250 
Q 1625 4250 1398 4047 
Q 1172 3844 1172 3481 
z
" transform="scale(0.015625)"/>
       </defs>
       <use xlink:href="#DejaVuSans-38"/>
       <use xlink:href="#DejaVuSans-30" x="63.623047"/>
      </g>
     </g>
    </g>
    <g id="xtick_6">
     <g id="line2d_11">
      <path d="M 279.62754 273.312 
L 279.62754 7.2 
" clip-path="url(#p715eb22ad0)" style="fill: none; stroke: #b0b0b0; stroke-width: 0.8; stroke-linecap: square"/>
     </g>
     <g id="line2d_12">
      <g>
       <use xlink:href="#m0377f23d68" x="279.62754" y="273.312" style="stroke: #000000; stroke-width: 0.8"/>
      </g>
     </g>
     <g id="text_6">
      <!-- 100 -->
      <g transform="translate(270.08379 287.910437) scale(0.1 -0.1)">
       <defs>
        <path id="DejaVuSans-31" d="M 794 531 
L 1825 531 
L 1825 4091 
L 703 3866 
L 703 4441 
L 1819 4666 
L 2450 4666 
L 2450 531 
L 3481 531 
L 3481 0 
L 794 0 
L 794 531 
z
" transform="scale(0.015625)"/>
       </defs>
       <use xlink:href="#DejaVuSans-31"/>
       <use xlink:href="#DejaVuSans-30" x="63.623047"/>
       <use xlink:href="#DejaVuSans-30" x="127.246094"/>
      </g>
     </g>
    </g>
    <g id="xtick_7">
     <g id="line2d_13">
      <path d="M 322.917706 273.312 
L 322.917706 7.2 
" clip-path="url(#p715eb22ad0)" style="fill: none; stroke: #b0b0b0; stroke-width: 0.8; stroke-linecap: square"/>
     </g>
     <g id="line2d_14">
      <g>
       <use xlink:href="#m0377f23d68" x="322.917706" y="273.312" style="stroke: #000000; stroke-width: 0.8"/>
      </g>
     </g>
     <g id="text_7">
      <!-- 120 -->
      <g transform="translate(313.373956 287.910437) scale(0.1 -0.1)">
       <use xlink:href="#DejaVuSans-31"/>
       <use xlink:href="#DejaVuSans-32" x="63.623047"/>
       <use xlink:href="#DejaVuSans-30" x="127.246094"/>
      </g>
     </g>
    </g>
    <g id="xtick_8">
     <g id="line2d_15">
      <path d="M 366.207873 273.312 
L 366.207873 7.2 
" clip-path="url(#p715eb22ad0)" style="fill: none; stroke: #b0b0b0; stroke-width: 0.8; stroke-linecap: square"/>
     </g>
     <g id="line2d_16">
      <g>
       <use xlink:href="#m0377f23d68" x="366.207873" y="273.312" style="stroke: #000000; stroke-width: 0.8"/>
      </g>
     </g>
     <g id="text_8">
      <!-- 140 -->
      <g transform="translate(356.664123 287.910437) scale(0.1 -0.1)">
       <use xlink:href="#DejaVuSans-31"/>
       <use xlink:href="#DejaVuSans-34" x="63.623047"/>
       <use xlink:href="#DejaVuSans-30" x="127.246094"/>
      </g>
     </g>
    </g>
   </g>
   <g id="matplotlib.axis_2">
    <g id="ytick_1">
     <g id="line2d_17">
      <path d="M 46.965625 261.216 
L 404.085625 261.216 
" clip-path="url(#p715eb22ad0)" style="fill: none; stroke: #b0b0b0; stroke-width: 0.8; stroke-linecap: square"/>
     </g>
     <g id="line2d_18">
      <defs>
       <path id="mc64fbd5e50" d="M 0 0 
L -3.5 0 
" style="stroke: #000000; stroke-width: 0.8"/>
      </defs>
      <g>
       <use xlink:href="#mc64fbd5e50" x="46.965625" y="261.216" style="stroke: #000000; stroke-width: 0.8"/>
      </g>
     </g>
     <g id="text_9">
      <!-- 0 -->
      <g transform="translate(33.603125 265.015219) scale(0.1 -0.1)">
       <use xlink:href="#DejaVuSans-30"/>
      </g>
     </g>
    </g>
    <g id="ytick_2">
     <g id="line2d_19">
      <path d="M 46.965625 203.861804 
L 404.085625 203.861804 
" clip-path="url(#p715eb22ad0)" style="fill: none; stroke: #b0b0b0; stroke-width: 0.8; stroke-linecap: square"/>
     </g>
     <g id="line2d_20">
      <g>
       <use xlink:href="#mc64fbd5e50" x="46.965625" y="203.861804" style="stroke: #000000; stroke-width: 0.8"/>
      </g>
     </g>
     <g id="text_10">
      <!-- 200 -->
      <g transform="translate(20.878125 207.661022) scale(0.1 -0.1)">
       <use xlink:href="#DejaVuSans-32"/>
       <use xlink:href="#DejaVuSans-30" x="63.623047"/>
       <use xlink:href="#DejaVuSans-30" x="127.246094"/>
      </g>
     </g>
    </g>
    <g id="ytick_3">
     <g id="line2d_21">
      <path d="M 46.965625 146.507607 
L 404.085625 146.507607 
" clip-path="url(#p715eb22ad0)" style="fill: none; stroke: #b0b0b0; stroke-width: 0.8; stroke-linecap: square"/>
     </g>
     <g id="line2d_22">
      <g>
       <use xlink:href="#mc64fbd5e50" x="46.965625" y="146.507607" style="stroke: #000000; stroke-width: 0.8"/>
      </g>
     </g>
     <g id="text_11">
      <!-- 400 -->
      <g transform="translate(20.878125 150.306826) scale(0.1 -0.1)">
       <use xlink:href="#DejaVuSans-34"/>
       <use xlink:href="#DejaVuSans-30" x="63.623047"/>
       <use xlink:href="#DejaVuSans-30" x="127.246094"/>
      </g>
     </g>
    </g>
    <g id="ytick_4">
     <g id="line2d_23">
      <path d="M 46.965625 89.153411 
L 404.085625 89.153411 
" clip-path="url(#p715eb22ad0)" style="fill: none; stroke: #b0b0b0; stroke-width: 0.8; stroke-linecap: square"/>
     </g>
     <g id="line2d_24">
      <g>
       <use xlink:href="#mc64fbd5e50" x="46.965625" y="89.153411" style="stroke: #000000; stroke-width: 0.8"/>
      </g>
     </g>
     <g id="text_12">
      <!-- 600 -->
      <g transform="translate(20.878125 92.95263) scale(0.1 -0.1)">
       <use xlink:href="#DejaVuSans-36"/>
       <use xlink:href="#DejaVuSans-30" x="63.623047"/>
       <use xlink:href="#DejaVuSans-30" x="127.246094"/>
      </g>
     </g>
    </g>
    <g id="ytick_5">
     <g id="line2d_25">
      <path d="M 46.965625 31.799215 
L 404.085625 31.799215 
" clip-path="url(#p715eb22ad0)" style="fill: none; stroke: #b0b0b0; stroke-width: 0.8; stroke-linecap: square"/>
     </g>
     <g id="line2d_26">
      <g>
       <use xlink:href="#mc64fbd5e50" x="46.965625" y="31.799215" style="stroke: #000000; stroke-width: 0.8"/>
      </g>
     </g>
     <g id="text_13">
      <!-- 800 -->
      <g transform="translate(20.878125 35.598434) scale(0.1 -0.1)">
       <use xlink:href="#DejaVuSans-38"/>
       <use xlink:href="#DejaVuSans-30" x="63.623047"/>
       <use xlink:href="#DejaVuSans-30" x="127.246094"/>
      </g>
     </g>
    </g>
    <g id="text_14">
     <!-- [RPM] -->
     <g transform="translate(14.798438 154.960687) rotate(-90) scale(0.1 -0.1)">
      <defs>
       <path id="DejaVuSans-5b" d="M 550 4863 
L 1875 4863 
L 1875 4416 
L 1125 4416 
L 1125 -397 
L 1875 -397 
L 1875 -844 
L 550 -844 
L 550 4863 
z
" transform="scale(0.015625)"/>
       <path id="DejaVuSans-52" d="M 2841 2188 
Q 3044 2119 3236 1894 
Q 3428 1669 3622 1275 
L 4263 0 
L 3584 0 
L 2988 1197 
Q 2756 1666 2539 1819 
Q 2322 1972 1947 1972 
L 1259 1972 
L 1259 0 
L 628 0 
L 628 4666 
L 2053 4666 
Q 2853 4666 3247 4331 
Q 3641 3997 3641 3322 
Q 3641 2881 3436 2590 
Q 3231 2300 2841 2188 
z
M 1259 4147 
L 1259 2491 
L 2053 2491 
Q 2509 2491 2742 2702 
Q 2975 2913 2975 3322 
Q 2975 3731 2742 3939 
Q 2509 4147 2053 4147 
L 1259 4147 
z
" transform="scale(0.015625)"/>
       <path id="DejaVuSans-50" d="M 1259 4147 
L 1259 2394 
L 2053 2394 
Q 2494 2394 2734 2622 
Q 2975 2850 2975 3272 
Q 2975 3691 2734 3919 
Q 2494 4147 2053 4147 
L 1259 4147 
z
M 628 4666 
L 2053 4666 
Q 2838 4666 3239 4311 
Q 3641 3956 3641 3272 
Q 3641 2581 3239 2228 
Q 2838 1875 2053 1875 
L 1259 1875 
L 1259 0 
L 628 0 
L 628 4666 
z
" transform="scale(0.015625)"/>
       <path id="DejaVuSans-4d" d="M 628 4666 
L 1569 4666 
L 2759 1491 
L 3956 4666 
L 4897 4666 
L 4897 0 
L 4281 0 
L 4281 4097 
L 3078 897 
L 2444 897 
L 1241 4097 
L 1241 0 
L 628 0 
L 628 4666 
z
" transform="scale(0.015625)"/>
       <path id="DejaVuSans-5d" d="M 1947 4863 
L 1947 -844 
L 622 -844 
L 622 -397 
L 1369 -397 
L 1369 4416 
L 622 4416 
L 622 4863 
L 1947 4863 
z
" transform="scale(0.015625)"/>
      </defs>
      <use xlink:href="#DejaVuSans-5b"/>
      <use xlink:href="#DejaVuSans-52" x="39.013672"/>
      <use xlink:href="#DejaVuSans-50" x="108.496094"/>
      <use xlink:href="#DejaVuSans-4d" x="168.798828"/>
      <use xlink:href="#DejaVuSans-5d" x="255.078125"/>
     </g>
    </g>
   </g>
   <g id="line2d_27">
    <path d="M 63.221804 261.216 
L 135.166989 261.216 
L 135.168255 260.724525 
L 135.254835 260.727407 
L 135.341416 260.730273 
L 135.601156 257.811483 
L 135.687736 257.831451 
L 138.025406 258.328483 
L 138.111986 257.363911 
L 138.198567 257.386504 
L 138.425533 257.442408 
L 138.519332 256.483033 
L 138.597998 256.510792 
L 138.691077 255.556881 
L 138.772799 255.590072 
L 139.154607 255.73704 
L 139.511837 255.864452 
L 140.165939 256.095418 
L 140.279979 255.160332 
L 140.333251 255.178117 
L 140.545346 255.231158 
L 140.842167 251.478707 
L 141.074601 248.721575 
L 141.338486 246.009741 
L 141.895376 245.56133 
L 141.916303 242.436304 
L 142.017343 238.814163 
L 142.840465 228.527285 
L 143.352307 218.362397 
L 143.479967 215.165601 
L 143.797438 214.099137 
L 144.180204 198.102162 
L 144.827873 182.255635 
L 144.871578 182.299677 
L 144.914746 182.327517 
L 145.044708 181.313901 
L 145.650419 176.342784 
L 145.988781 176.010461 
L 146.262676 171.510346 
L 147.809004 158.96183 
L 148.201462 158.598808 
L 148.544917 152.913683 
L 149.194269 147.551954 
L 149.973491 141.189769 
L 150.307546 140.801659 
L 150.666197 135.589363 
L 152.138394 124.313862 
L 152.466463 124.033191 
L 152.744089 121.187181 
L 153.956187 116.639226 
L 154.307134 115.86886 
L 154.6319 115.692024 
L 154.736641 115.186364 
L 155.082657 114.304108 
L 155.389181 112.945983 
L 156.467017 107.795328 
L 156.859677 107.46849 
L 157.116369 103.80932 
L 157.679142 101.222359 
L 158.112043 99.9516 
L 158.501655 99.224401 
L 159.01161 99.081195 
L 159.013986 98.865538 
L 159.115145 98.975283 
L 159.462743 99.552006 
L 160.199062 101.14905 
L 161.177209 102.175917 
L 161.279224 102.034445 
L 161.583217 101.648821 
L 161.797492 101.633453 
L 161.97181 101.561321 
L 162.104289 101.679135 
L 162.582974 102.438303 
L 162.972218 103.080433 
L 163.006835 103.234827 
L 163.315828 103.393839 
L 163.524886 104.745298 
L 163.826345 104.966103 
L 164.087974 105.040484 
L 164.259246 105.114798 
L 164.736665 104.945007 
L 164.995179 104.651364 
L 165.168617 104.421268 
L 165.493641 104.291692 
L 165.49595 104.174591 
L 165.557961 104.321434 
L 165.601243 104.321726 
L 165.990854 104.661572 
L 166.597675 105.796763 
L 166.900025 106.025728 
L 167.073132 106.112476 
L 167.33285 105.826685 
L 167.653931 105.967167 
L 167.76575 106.415515 
L 167.982201 108.086061 
L 169.249692 117.612957 
L 169.293206 117.350557 
L 169.507193 115.403442 
L 169.865579 115.093336 
L 169.883957 114.169275 
L 169.973573 114.36752 
L 170.622902 115.10598 
L 170.666192 115.053392 
L 170.925932 115.086755 
L 171.315553 114.681825 
L 171.670505 114.20225 
L 172.010277 114.098838 
L 172.094782 113.834286 
L 172.397798 113.668634 
L 172.528098 113.59856 
L 172.658362 113.562084 
L 172.879782 113.716911 
L 173.485151 114.706799 
L 173.833713 115.426086 
L 174.161334 115.613529 
L 174.263806 116.070687 
L 174.697038 116.370156 
L 174.913888 116.232482 
L 175.390746 115.791527 
L 175.519824 115.737883 
L 175.692762 115.605789 
L 176.35634 115.288643 
L 176.467074 114.971057 
L 176.856685 114.57323 
L 176.986556 114.473312 
L 177.159716 114.26647 
L 177.289587 114.190123 
L 178.171107 112.884848 
L 178.525592 112.89167 
L 178.631582 112.466994 
L 178.934613 112.284549 
L 179.151064 112.206419 
L 179.670546 111.891437 
L 179.757126 111.818505 
L 179.930287 111.693435 
L 180.060158 111.544721 
L 180.32902 111.345374 
L 180.367124 111.313949 
L 180.771979 111.132184 
L 180.772576 111.163627 
L 180.88267 110.882554 
L 181.402153 110.304116 
L 181.532024 110.013513 
L 181.75745 109.812653 
L 181.84009 109.607414 
L 182.099989 109.319994 
L 182.532802 108.656601 
L 182.888988 108.457264 
L 182.97335 107.958781 
L 183.361844 107.606828 
L 183.664419 107.571407 
L 184.098771 106.801647 
L 184.703491 105.497337 
L 185.028501 105.325572 
L 185.047806 105.015563 
L 185.134635 105.061452 
L 185.66181 104.546902 
L 185.743619 104.395303 
L 186.08912 104.01092 
L 186.65379 103.64665 
L 186.69485 103.7275 
L 186.868425 103.841316 
L 187.195544 103.946673 
L 187.300367 104.458359 
L 187.638698 104.943864 
L 187.815442 105.07097 
L 187.904729 105.131721 
L 187.95782 105.08592 
L 188.043642 105.081067 
L 188.189418 105.214363 
L 188.216852 105.166384 
L 188.292039 105.241122 
L 188.444235 105.291633 
L 188.458449 105.262849 
L 188.551392 105.374582 
L 188.745452 105.447129 
L 188.804771 105.330915 
L 188.848061 105.3705 
L 189.436323 105.33713 
L 189.627284 104.758541 
L 189.809434 104.633424 
L 189.983031 104.396604 
L 190.11153 104.428599 
L 190.246067 104.339793 
L 190.371115 104.200765 
L 190.414354 104.234006 
L 190.587534 104.469444 
L 190.63051 104.421687 
L 190.672841 104.396613 
L 190.716084 104.474753 
L 190.941784 104.858427 
L 191.055985 105.084806 
L 191.142451 105.241763 
L 191.185761 105.396648 
L 191.519088 105.479156 
L 191.748503 106.82994 
L 192.227011 107.869412 
L 192.627316 108.626319 
L 192.704905 108.53994 
L 192.748111 108.50778 
L 192.791667 108.569756 
L 193.102225 108.804136 
L 193.364642 108.754544 
L 193.450093 108.704004 
L 193.535332 108.540988 
L 193.574395 108.602734 
L 193.837123 108.51762 
L 194.606287 107.907265 
L 195.233222 106.505533 
L 195.384877 106.20542 
L 195.499522 106.087425 
L 195.57437 105.795306 
L 196.20739 105.603435 
L 196.446811 105.37312 
L 196.518609 105.304082 
L 196.646394 105.034452 
L 196.988917 104.22694 
L 197.082771 103.975482 
L 197.376224 103.212794 
L 197.462804 103.156472 
L 197.549384 102.942375 
L 197.722545 102.665195 
L 198.137447 102.466071 
L 198.247108 101.692019 
L 198.398503 101.465286 
L 198.614327 101.21424 
L 198.815943 100.204582 
L 198.91672 99.928855 
L 199.330285 98.516987 
L 199.54079 97.928429 
L 199.897086 96.571396 
L 199.942319 96.464513 
L 200.477741 96.270112 
L 200.728069 93.820783 
L 201.445499 92.922711 
L 201.534762 92.982979 
L 202.10828 92.709576 
L 202.201423 92.625519 
L 202.247744 92.727517 
L 202.320261 92.660911 
L 202.413714 92.716338 
L 202.491295 92.551822 
L 202.535074 92.569202 
L 202.670694 92.731123 
L 202.718559 92.812693 
L 202.767973 92.756809 
L 202.787494 92.656857 
L 202.830786 92.73934 
L 203.140669 93.121704 
L 203.267038 93.322576 
L 203.612398 94.001203 
L 204.259361 95.821625 
L 204.688284 95.974929 
L 204.792268 96.98692 
L 204.876487 96.969672 
L 205.06432 97.126374 
L 205.304414 97.248539 
L 205.341803 97.168449 
L 205.515655 96.822883 
L 205.666636 96.762798 
L 206.121678 95.996263 
L 206.207845 95.929582 
L 206.827059 95.508862 
L 206.845715 95.613743 
L 206.863553 95.246971 
L 206.950011 95.367491 
L 206.991798 95.347111 
L 207.165832 95.227032 
L 207.289673 95.249489 
L 207.376254 95.131083 
L 207.419543 95.078774 
L 207.462833 95.171404 
L 208.155476 96.042866 
L 208.415216 96.342189 
L 208.545087 96.362335 
L 208.588377 96.298788 
L 208.973097 96.356624 
L 208.973824 96.308692 
L 209.118862 96.051022 
L 209.292796 96.038508 
L 209.411071 95.841551 
L 209.497471 95.899104 
L 209.757234 95.805716 
L 210.536434 96.670585 
L 210.623015 96.718968 
L 210.752886 96.816925 
L 211.142497 96.974402 
L 211.315658 97.157997 
L 211.358947 97.100383 
L 211.503795 97.070745 
L 211.582535 97.274406 
L 211.625533 97.237866 
L 211.756176 97.226745 
L 211.972205 96.934288 
L 212.928842 93.384438 
L 213.302011 93.1598 
L 213.576722 91.425214 
L 213.661968 91.242483 
L 213.877516 90.698068 
L 214.006286 90.588227 
L 214.396204 89.764526 
L 214.48276 89.704441 
L 214.787875 89.193271 
L 215.002249 88.96982 
L 215.091559 88.805985 
L 215.461896 88.589285 
L 215.561973 88.146822 
L 215.737537 87.744353 
L 215.994987 87.17975 
L 216.646937 85.595136 
L 216.949615 84.927033 
L 217.251977 84.307985 
L 217.645955 84.174281 
L 217.686017 83.446367 
L 217.729854 83.45724 
L 218.336053 82.137239 
L 218.422607 81.917567 
L 218.682291 81.233426 
L 218.812862 80.959957 
L 219.030201 80.605869 
L 219.245572 80.132918 
L 219.28903 80.201953 
L 219.421215 80.130562 
L 219.814446 79.935664 
L 219.900989 79.34221 
L 220.072064 79.304576 
L 220.244182 78.822409 
L 220.290265 78.846574 
L 220.414412 78.726052 
L 220.796205 78.10743 
L 220.882824 78.023927 
L 221.099235 77.67483 
L 221.142526 77.69805 
L 221.272396 77.87287 
L 221.315687 77.801707 
L 221.445561 77.759658 
L 221.575449 77.969875 
L 222.015289 77.879794 
L 222.01651 77.98112 
L 222.098593 78.416518 
L 222.747095 78.518428 
L 222.830842 78.421083 
L 222.918986 78.250375 
L 222.962895 78.279205 
L 223.093657 78.151985 
L 223.136537 78.221806 
L 223.222259 78.109664 
L 223.482103 77.557784 
L 223.657759 77.362243 
L 223.787024 77.188465 
L 224.163621 77.075879 
L 224.164366 77.099477 
L 224.18081 76.788666 
L 224.266883 76.815069 
L 224.311033 76.839909 
L 224.649029 76.327443 
L 224.743474 76.376912 
L 224.90877 76.040544 
L 225.05968 76.048608 
L 225.255091 75.759578 
L 225.341671 75.896638 
L 225.384962 75.866069 
L 225.471543 75.784911 
L 225.514832 75.869445 
L 225.687993 76.095371 
L 225.861153 76.081641 
L 225.904443 75.987367 
L 225.947734 76.061884 
L 226.432559 76.073891 
L 226.865568 75.987136 
L 226.952694 76.012808 
L 226.995568 75.973147 
L 227.211839 75.815919 
L 227.299243 75.844427 
L 227.344116 75.882111 
L 227.378964 75.83712 
L 227.428875 75.768857 
L 227.472464 75.826383 
L 227.604026 76.043989 
L 227.688189 75.841746 
L 227.733053 75.879187 
L 227.867852 76.104427 
L 227.908545 76.056488 
L 227.948892 75.98232 
L 227.991113 76.01044 
L 228.122053 76.1941 
L 228.503207 76.331926 
L 228.506428 76.464081 
L 228.588434 76.420239 
L 228.675015 76.515028 
L 228.804885 76.368115 
L 229.022861 76.52627 
L 229.151206 76.487412 
L 229.497528 76.509372 
L 229.540818 76.399795 
L 229.58581 76.436306 
L 229.800559 76.814462 
L 229.97372 76.737087 
L 230.103602 76.815174 
L 230.190171 76.849454 
L 230.233488 76.802253 
L 230.276751 76.70761 
L 230.685624 76.832178 
L 230.687153 76.925729 
L 230.757585 76.652742 
L 231.012977 76.275035 
L 231.229161 76.00071 
L 231.705327 74.677174 
L 232.008358 73.816596 
L 232.311389 72.846003 
L 232.894103 72.434861 
L 233.004031 71.67757 
L 233.133901 71.442953 
L 233.263773 71.2681 
L 233.350352 71.180333 
L 233.436936 70.975987 
L 233.480223 71.005104 
L 233.783255 70.672493 
L 233.826544 70.722335 
L 234.129586 70.633356 
L 234.259445 70.857508 
L 234.346035 70.746853 
L 234.389322 70.805133 
L 234.519187 71.042893 
L 234.562477 71.025054 
L 234.60577 70.932007 
L 235.004664 70.904888 
L 235.006993 71.328613 
L 235.08925 71.31879 
L 235.261498 71.371091 
L 235.479977 71.529821 
L 235.783146 71.930839 
L 236.043228 72.495864 
L 236.128064 72.488692 
L 236.467244 73.117198 
L 236.726986 73.77651 
L 236.770275 73.827774 
L 237.219331 73.869371 
L 237.265085 74.369228 
L 237.333048 74.850058 
L 237.376337 74.76955 
L 237.506208 74.758062 
L 237.63608 74.862266 
L 237.681215 74.767551 
L 237.766627 74.842893 
L 237.898107 74.834247 
L 238.068981 74.798162 
L 238.199259 74.836365 
L 238.28867 74.679864 
L 238.329518 74.716205 
L 238.764952 74.819183 
L 238.808247 74.899525 
L 238.851098 74.865963 
L 238.935076 74.695872 
L 239.502841 74.581592 
L 239.585203 73.559333 
L 240.037665 72.082333 
L 240.276779 70.995678 
L 240.368028 70.859001 
L 240.635915 70.028791 
L 241.099293 68.632224 
L 241.498093 68.425036 
L 241.580076 67.752802 
L 241.75273 67.28218 
L 241.851801 67.162418 
L 242.181546 66.223037 
L 242.311417 65.971681 
L 242.701028 65.190613 
L 242.830899 65.128684 
L 243.048512 64.734987 
L 243.263801 64.529796 
L 243.651287 64.343074 
L 243.919538 62.742599 
L 243.969851 62.714649 
L 244.402653 61.384451 
L 245.267032 60.102301 
L 245.481341 59.460555 
L 245.831413 59.220882 
L 246.169387 56.450715 
L 246.316438 55.945757 
L 247.342642 52.43891 
L 247.643581 51.536817 
L 247.970613 51.414597 
L 248.201569 50.313598 
L 248.593265 49.394534 
L 249.714583 47.909752 
L 249.760168 47.954871 
L 249.801028 48.137991 
L 250.168887 48.303522 
L 250.170067 48.21488 
L 250.171491 48.074583 
L 250.276808 48.637519 
L 250.49328 48.919237 
L 250.536549 48.866834 
L 250.933777 49.6548 
L 251.025875 49.817014 
L 251.10695 49.997936 
L 251.153771 49.961443 
L 251.324067 50.087657 
L 251.45616 50.294335 
L 251.498385 50.244445 
L 251.583278 50.224819 
L 251.852298 49.975734 
L 251.974269 49.844368 
L 252.465932 49.818812 
L 252.466837 49.783117 
L 252.469804 49.532482 
L 252.572712 49.675998 
L 252.713979 49.485669 
L 252.748991 49.559473 
L 252.921614 49.775088 
L 253.05385 49.732156 
L 253.182797 49.977968 
L 253.311102 50.080998 
L 253.398003 50.07351 
L 253.570963 50.287695 
L 253.956471 50.868158 
L 254.043158 50.81524 
L 254.129633 51.023268 
L 254.553625 51.236988 
L 254.657858 51.923021 
L 255.003992 52.626637 
L 255.099871 52.645998 
L 255.401739 53.199403 
L 255.530136 53.254639 
L 256.348998 54.504743 
L 257.855977 57.399798 
L 258.11407 57.614234 
L 258.331866 58.046263 
L 258.418495 58.114972 
L 258.461602 58.241587 
L 258.845933 58.333971 
L 259.029684 59.169747 
L 259.151292 59.303857 
L 259.891722 60.726579 
L 260.150418 61.044091 
L 260.193634 60.996489 
L 260.237198 60.972331 
L 260.283737 61.061035 
L 260.410108 61.457883 
L 260.453322 61.433514 
L 260.538731 61.277987 
L 260.627844 61.552819 
L 261.020572 61.545791 
L 261.021679 61.46521 
L 261.105804 61.863218 
L 261.35909 61.93143 
L 261.532251 62.171093 
L 261.705411 62.448896 
L 262.657796 63.959865 
L 262.787665 64.162043 
L 263.185683 64.315225 
L 263.188253 64.491207 
L 263.271684 64.404611 
L 264.265508 64.00023 
L 264.439428 63.961715 
L 264.568847 63.993232 
L 264.69879 64.218693 
L 264.958064 64.710483 
L 265.354499 64.865833 
L 265.440389 66.178826 
L 265.526646 66.481873 
L 266.110979 69.640366 
L 266.274314 70.279542 
L 266.60902 72.639376 
L 267.160866 75.202045 
L 267.620894 75.396815 
L 267.659992 76.445334 
L 267.766036 77.357703 
L 268.416115 78.332224 
L 269.324955 79.258939 
L 269.674011 79.320621 
L 269.887278 80.273283 
L 270.146995 80.796922 
L 270.493326 81.504557 
L 270.839637 82.006881 
L 270.926217 82.087393 
L 271.142668 82.56287 
L 271.229248 82.644296 
L 271.445699 82.984644 
L 271.86785 83.315086 
L 271.974045 84.223152 
L 272.623135 85.338921 
L 272.796105 85.195759 
L 272.926325 85.347996 
L 273.016242 85.427363 
L 273.055154 85.365243 
L 273.230903 85.22386 
L 273.27234 85.301288 
L 273.31664 85.178994 
L 273.619239 85.001749 
L 273.661409 84.956166 
L 274.051943 84.839921 
L 274.054729 84.511282 
L 274.137873 84.540855 
L 274.441247 84.298965 
L 274.485049 84.397818 
L 274.616651 84.675363 
L 274.663426 84.634271 
L 274.706409 84.622598 
L 275.047235 85.3352 
L 275.13728 85.515719 
L 275.308785 85.842497 
L 275.439684 86.122659 
L 275.829275 87.137304 
L 276.210413 87.253435 
L 276.424083 88.645094 
L 276.467358 88.648596 
L 276.85697 89.569329 
L 276.94355 89.639145 
L 277.419742 90.783036 
L 277.549651 90.844147 
L 277.982514 91.850804 
L 278.436966 91.974718 
L 278.545286 93.260898 
L 279.717308 95.70436 
L 279.854677 95.99118 
L 280.0316 96.30945 
L 280.147023 96.385261 
L 280.820006 96.56552 
L 280.969535 98.250827 
L 281.229278 99.025141 
L 281.839998 100.964532 
L 282.141074 101.700087 
L 282.31564 102.224203 
L 282.708083 102.242273 
L 282.74288 103.117776 
L 282.831013 103.622794 
L 283.307206 104.84938 
L 283.869977 105.360491 
L 283.999848 105.386869 
L 284.218462 105.4565 
L 284.346984 105.543689 
L 284.477053 105.585798 
L 284.94167 105.669973 
L 285.047104 106.133136 
L 285.355452 106.722736 
L 286.034485 109.087758 
L 286.640547 111.022938 
L 287.079052 111.191263 
L 287.164938 112.039287 
L 287.336786 112.177762 
L 288.073124 113.404319 
L 288.851645 114.561638 
L 289.734313 114.704973 
L 289.86374 115.92747 
L 289.973904 117.852841 
L 291.066421 120.090788 
L 291.234208 120.346779 
L 291.798565 121.21599 
L 292.051895 121.329406 
L 292.48472 121.357139 
L 292.575434 121.326918 
L 292.753721 121.504782 
L 292.840426 121.586168 
L 293.180634 122.138918 
L 293.233801 122.184424 
L 293.655623 122.292659 
L 293.82672 123.255732 
L 293.870005 123.236175 
L 294.307089 123.149937 
L 294.573519 123.044025 
L 295.03884 123.107309 
L 295.385162 123.251076 
L 295.803395 123.403059 
L 295.913521 123.619373 
L 296.002046 123.619183 
L 296.127993 123.599056 
L 297.25601 123.553336 
L 297.557406 123.829246 
L 298.106605 123.933767 
L 298.245408 125.076412 
L 298.761795 126.255653 
L 299.15626 127.414083 
L 299.761084 129.517915 
L 300.414426 129.727838 
L 300.488916 130.925094 
L 300.579982 132.11679 
L 301.420773 133.778867 
L 302.164721 134.04795 
L 302.3298 134.103175 
L 302.406058 134.180279 
L 302.444602 134.148106 
L 302.628351 134.167831 
L 302.805079 134.147295 
L 302.947867 133.959374 
L 303.106211 134.066402 
L 303.265307 134.020254 
L 303.437133 134.088369 
L 304.008725 134.563734 
L 304.098104 134.632913 
L 304.595501 134.736152 
L 304.698563 135.175173 
L 305.739107 135.758809 
L 305.874722 135.742102 
L 306.857056 135.678803 
L 307.121111 135.453068 
L 307.376537 135.2954 
L 307.557301 135.193675 
L 307.643996 135.125329 
L 307.680223 135.164776 
L 308.136139 135.210486 
L 308.199051 135.27628 
L 308.24234 135.250668 
L 308.391481 135.328264 
L 308.614891 135.474477 
L 308.681139 135.457307 
L 308.896604 135.626138 
L 308.9793 135.69311 
L 309.151503 135.893656 
L 309.238015 135.940242 
L 309.947222 136.460266 
L 309.985263 136.402775 
L 310.28773 136.575116 
L 310.638643 136.735922 
L 311.090682 136.780003 
L 311.201218 137.078633 
L 311.414144 137.104665 
L 311.629945 137.146041 
L 311.895674 137.020425 
L 312.104911 137.02303 
L 312.2369 137.047747 
L 312.544135 137.184362 
L 312.787808 137.281745 
L 313.235595 137.457847 
L 313.315851 137.769855 
L 314.487074 139.311397 
L 314.963536 139.901288 
L 315.368633 140.035389 
L 315.479184 140.342604 
L 315.523368 140.334011 
L 315.997418 140.69992 
L 317.080529 141.784186 
L 317.634791 141.951676 
L 317.727183 142.533319 
L 318.212091 143.611967 
L 318.684284 144.651422 
L 319.894765 147.7583 
L 320.111468 148.000732 
L 320.239994 148.075029 
L 320.543087 148.264038 
L 320.847311 148.423605 
L 321.445884 148.865664 
L 321.915376 149.008454 
L 322.008614 149.886682 
L 323.047578 151.734644 
L 323.361653 152.31991 
L 323.662093 152.97781 
L 324.093518 153.185755 
L 324.220738 154.267305 
L 325.818149 157.908745 
L 326.250758 158.025643 
L 326.522073 159.719068 
L 327.03177 160.687926 
L 327.982657 161.75828 
L 328.675528 161.743501 
L 328.978707 161.575974 
L 329.500802 161.615685 
L 329.845183 161.880064 
L 329.976797 162.030221 
L 330.147994 162.196452 
L 330.59763 162.350188 
L 330.676987 162.935444 
L 330.981179 163.46617 
L 331.32739 165.891385 
L 331.370662 166.17134 
L 331.413572 165.524713 
L 331.457028 165.967998 
L 331.835482 168.456192 
L 332.008642 167.243029 
L 332.311674 169.183909 
L 332.757676 169.454194 
L 332.778003 171.588092 
L 332.881431 172.63636 
L 334.003398 179.157579 
L 334.525843 182.003245 
L 334.941116 182.235882 
L 334.961556 184.072545 
L 335.039755 184.750228 
L 336.69278 192.836128 
L 337.118056 193.03695 
L 337.137149 194.622437 
L 337.24678 195.4013 
L 338.853244 202.187541 
L 339.248704 202.360899 
L 339.26893 203.560233 
L 339.375404 204.234562 
L 340.762439 209.352881 
L 341.019445 210.260084 
L 341.457983 210.409734 
L 341.493788 211.591222 
L 341.579179 212.171622 
L 343.007039 216.708098 
L 343.216512 217.228652 
L 343.722243 217.357837 
L 343.740892 218.503557 
L 343.830715 219.127086 
L 345.391166 223.355739 
L 345.801006 223.577793 
L 345.906871 224.668678 
L 347.54998 228.533387 
L 347.987376 228.725074 
L 348.112584 229.759428 
L 349.721912 233.002957 
L 350.142861 233.168429 
L 350.233802 233.981344 
L 351.878828 236.861283 
L 352.336589 237.004125 
L 352.441601 237.774914 
L 354.046597 240.191956 
L 354.793315 240.315264 
L 354.909141 241.392993 
L 356.211314 243.067137 
L 356.647388 243.226569 
L 356.731142 243.696513 
L 358.376602 245.549117 
L 358.827885 245.686747 
L 358.935126 246.136838 
L 360.536863 247.69167 
L 361.20955 247.849848 
L 361.229943 248.160674 
L 361.27852 248.35126 
L 361.733929 248.724124 
L 361.922147 248.906484 
L 362.702052 249.541214 
L 363.287798 249.67776 
L 363.394013 250.077889 
L 364.86588 251.137821 
L 365.305472 251.255693 
L 365.386426 251.487317 
L 367.032006 252.51608 
L 367.521732 252.643084 
L 367.602314 252.842445 
L 370.409808 254.299554 
L 371.412885 254.751957 
L 371.864906 254.865028 
L 371.976287 254.994446 
L 373.570122 255.635959 
L 374.035154 255.749667 
L 374.65039 256.031535 
L 375.73171 256.399067 
L 376.269149 256.524902 
L 376.348066 256.593384 
L 377.943426 257.070028 
L 378.436668 257.190192 
L 378.545572 257.237277 
L 380.107873 257.637018 
L 380.626307 257.750955 
L 380.719425 257.781395 
L 383.047749 258.285777 
L 387.821087 259.095718 
L 387.821087 259.095718 
" clip-path="url(#p715eb22ad0)" style="fill: none; stroke: #800080; stroke-width: 1.5; stroke-linecap: square"/>
   </g>
   <g id="line2d_28">
    <path d="M 63.198352 261.216 
L 136.299728 261.216 
L 136.429602 260.871875 
L 136.732645 260.871875 
L 136.86252 261.216 
L 141.227434 261.216 
L 141.338486 256.398248 
L 142.15514 251.92462 
L 142.372755 248.483368 
L 143.328385 234.718361 
L 143.352307 234.718361 
L 143.483033 232.309485 
L 149.608516 143.869314 
L 149.765489 141.804563 
L 149.830425 141.804563 
L 149.981948 138.363312 
L 150.350838 132.857309 
L 150.372484 133.545559 
L 150.502359 131.824933 
L 151.498392 117.371676 
L 151.520038 117.715801 
L 151.541683 116.683425 
L 151.71485 113.586299 
L 151.758142 114.274549 
L 151.779788 113.586299 
L 151.952955 110.145047 
L 151.974601 110.489172 
L 151.996269 109.112671 
L 152.039561 109.800922 
L 152.85609 97.06829 
L 152.877737 97.412415 
L 152.899382 98.100666 
L 152.942674 96.38004 
L 152.96432 97.06829 
L 153.115839 92.938788 
L 153.159131 93.971164 
L 153.224069 92.938788 
L 153.898352 81.926782 
L 153.921549 82.615033 
L 153.943195 83.303283 
L 153.96484 81.926782 
L 154.008132 81.926782 
L 154.131867 80.894407 
L 154.176487 80.894407 
L 154.314226 76.42078 
L 155.09245 65.408774 
L 155.114096 66.097024 
L 155.135742 66.785275 
L 155.179034 65.408774 
L 155.547013 59.558646 
L 155.568658 60.935147 
L 155.61195 60.246896 
L 155.633596 61.279272 
L 155.762925 59.214521 
L 155.811049 59.558646 
L 155.873326 59.214521 
L 156.168422 55.429144 
L 156.298971 57.83802 
L 156.428845 54.052643 
L 156.45049 55.085018 
L 156.472137 55.429144 
L 156.493782 55.085018 
L 156.859677 58.182145 
L 156.946261 61.279272 
L 156.989551 59.902771 
L 157.054489 58.52627 
L 157.09778 59.214521 
L 157.119426 59.902771 
L 157.141072 58.182145 
L 157.162718 58.52627 
L 157.292827 56.461519 
L 157.345274 58.870395 
L 157.398157 57.83802 
L 157.442513 55.085018 
L 157.52912 55.773269 
L 157.615703 57.83802 
L 157.637349 56.805644 
L 157.745578 55.085018 
L 157.767224 55.773269 
L 157.875452 54.396768 
L 157.83216 56.117394 
L 157.897098 55.429144 
L 157.918743 55.429144 
L 158.005325 56.461519 
L 158.026971 56.117394 
L 158.048617 56.117394 
L 158.178493 53.020267 
L 158.265076 56.117394 
L 158.286721 55.085018 
L 158.39495 52.676142 
L 158.416597 53.708518 
L 158.481535 54.052643 
L 158.459889 53.364393 
L 158.503181 53.364393 
L 158.524827 52.676142 
L 158.546472 54.052643 
L 158.568119 53.364393 
L 158.589765 54.740893 
L 158.65474 54.052643 
L 159.038627 47.514265 
L 159.103565 48.202515 
L 159.146857 47.85839 
L 159.276732 50.611391 
L 159.428253 46.826014 
L 159.644711 49.923141 
L 159.666357 47.85839 
L 159.75294 49.923141 
L 159.839524 47.170139 
L 159.882816 47.85839 
L 159.969401 49.579016 
L 159.991046 48.890765 
L 160.055984 47.514265 
L 160.099276 48.890765 
L 160.120923 49.23489 
L 160.142568 47.85839 
L 160.164213 48.202515 
L 160.207504 47.514265 
L 160.250796 48.54664 
L 160.294088 47.85839 
L 160.337379 50.267266 
L 160.402317 48.54664 
L 160.423964 47.514265 
L 160.4889 49.23489 
L 160.510546 47.85839 
L 160.59713 50.267266 
L 160.618775 48.890765 
L 160.683713 47.85839 
L 160.662067 49.23489 
L 160.70536 49.23489 
L 160.727005 49.23489 
L 160.791942 50.267266 
L 160.770296 48.890765 
L 160.835234 49.579016 
L 161.179423 56.117394 
L 161.244359 54.740893 
L 161.287651 54.396768 
L 161.460817 58.52627 
L 161.504109 57.83802 
L 161.525754 59.214521 
L 161.5474 58.52627 
L 161.612338 61.967522 
L 161.677284 60.935147 
L 161.893744 66.441149 
L 161.915389 65.752899 
L 161.937034 65.408774 
L 161.95868 66.441149 
L 162.135559 69.538276 
L 162.157205 68.5059 
L 162.200497 70.226526 
L 162.222142 69.194151 
L 162.308724 72.635403 
L 162.352016 72.291277 
L 162.373662 72.291277 
L 162.416954 71.603027 
L 162.546829 75.388404 
L 162.568475 75.044279 
L 163.337475 86.744535 
L 163.35912 86.056284 
L 163.402412 85.712159 
L 163.532287 89.497536 
L 163.553933 88.809286 
L 163.597224 89.841661 
L 163.640515 89.153411 
L 164.138367 96.38004 
L 164.160012 96.035915 
L 164.181658 95.691789 
L 164.203304 96.724165 
L 164.787739 104.639044 
L 164.809385 103.950794 
L 164.831031 105.327294 
L 164.852677 105.327294 
L 165.069134 108.768546 
L 165.134071 108.080296 
L 165.112425 109.456797 
L 165.155716 109.456797 
L 165.177362 110.489172 
L 165.975857 121.845303 
L 165.997503 121.157053 
L 166.019148 121.157053 
L 166.192314 125.286555 
L 166.235605 124.598304 
L 166.278898 125.286555 
L 166.300543 126.31893 
L 166.365481 125.974805 
L 166.387126 124.94243 
L 166.452065 126.31893 
L 166.473711 125.63068 
L 166.69017 128.383681 
L 166.711816 127.695431 
L 166.755108 127.695431 
L 166.776754 128.727807 
L 166.7984 127.351306 
L 166.863339 128.039556 
L 166.90663 126.663055 
L 166.971569 128.039556 
L 167.014861 127.351306 
L 167.079798 128.039556 
L 167.101675 128.383681 
L 167.144967 127.351306 
L 167.166612 127.351306 
L 167.188258 128.039556 
L 167.253194 127.007181 
L 167.27484 127.351306 
L 167.296486 127.695431 
L 167.339778 126.663055 
L 167.636993 126.663055 
L 167.723601 125.974805 
L 167.875123 129.071932 
L 168.004997 127.695431 
L 168.027095 128.383681 
L 168.070389 127.007181 
L 168.120972 128.039556 
L 168.164264 127.351306 
L 168.18591 128.383681 
L 168.236656 127.695431 
L 168.292232 128.727807 
L 168.360401 128.383681 
L 168.491367 126.663055 
L 168.529494 126.663055 
L 168.683147 123.910054 
L 168.785591 126.663055 
L 168.85053 126.31893 
L 169.062564 122.877679 
L 169.08421 122.877679 
L 169.19244 124.94243 
L 169.214085 124.254179 
L 169.235732 124.254179 
L 169.279024 124.94243 
L 169.322316 123.910054 
L 169.343961 124.254179 
L 169.430544 124.254179 
L 169.45219 123.221804 
L 169.517128 124.598304 
L 169.952584 130.448432 
L 169.974412 129.416057 
L 170.03935 128.383681 
L 170.082641 129.416057 
L 170.104287 129.416057 
L 170.234161 126.31893 
L 170.255807 126.663055 
L 170.428996 128.383681 
L 170.580518 125.286555 
L 170.602163 125.63068 
L 170.623808 125.974805 
L 170.645453 125.286555 
L 170.688746 125.63068 
L 170.753683 126.31893 
L 170.818621 124.94243 
L 170.840266 125.63068 
L 170.883558 123.910054 
L 170.905204 123.910054 
L 170.970141 124.94243 
L 170.991786 123.565929 
L 171.013432 124.254179 
L 171.143307 122.877679 
L 171.164953 123.565929 
L 171.208244 121.501178 
L 171.359762 119.436427 
L 171.483148 121.157053 
L 171.504794 120.812927 
L 171.656283 118.748176 
L 171.677929 118.059926 
L 171.993635 113.586299 
L 172.015281 113.930424 
L 172.036926 114.962799 
L 172.058571 112.898048 
L 172.101862 113.586299 
L 172.145154 112.209798 
L 172.210091 113.586299 
L 172.231737 113.242174 
L 172.253383 114.274549 
L 172.275029 113.930424 
L 172.426552 116.3393 
L 172.448199 115.65105 
L 172.556429 114.962799 
L 172.729597 117.715801 
L 172.844819 115.65105 
L 172.866465 115.995175 
L 172.931402 115.306925 
L 173.03963 116.683425 
L 173.082921 116.3393 
L 173.104567 116.683425 
L 173.256088 119.780552 
L 173.277734 119.436427 
L 173.299379 120.468802 
L 173.321025 120.124677 
L 173.34267 120.812927 
L 173.385961 119.092302 
L 173.429252 120.124677 
L 173.472544 119.092302 
L 173.49419 120.468802 
L 173.537481 120.124677 
L 173.667356 122.189428 
L 173.689002 121.501178 
L 173.840522 119.436427 
L 174.274079 124.94243 
L 174.295725 125.974805 
L 174.339017 123.910054 
L 174.360663 123.910054 
L 174.382308 123.910054 
L 174.403954 124.254179 
L 174.4256 122.877679 
L 174.577145 121.157053 
L 174.598795 121.157053 
L 174.620474 121.501178 
L 174.64212 120.468802 
L 174.750348 119.092302 
L 174.771994 119.436427 
L 175.0101 116.3393 
L 175.031745 117.371676 
L 175.075037 115.995175 
L 175.118329 116.3393 
L 175.16162 117.371676 
L 175.204912 116.3393 
L 175.291495 114.618674 
L 175.378079 114.962799 
L 175.551245 118.059926 
L 175.681121 114.618674 
L 175.702766 115.306925 
L 175.746058 114.618674 
L 175.767704 115.306925 
L 175.854288 117.02755 
L 175.875935 116.683425 
L 175.985059 115.306925 
L 176.006706 115.65105 
L 176.44697 109.800922 
L 176.490262 109.456797 
L 176.5552 110.833297 
L 176.620137 109.800922 
L 176.641782 110.833297 
L 176.685074 112.553923 
L 176.771657 111.521548 
L 176.88041 109.800922 
L 176.902055 110.489172 
L 177.055102 113.586299 
L 177.16333 112.898048 
L 177.249912 111.177422 
L 177.271558 111.521548 
L 177.293205 112.209798 
L 177.31485 110.833297 
L 177.358142 111.177422 
L 177.401433 109.456797 
L 177.488016 110.145047 
L 177.509662 111.521548 
L 177.596245 110.489172 
L 177.661183 110.833297 
L 177.791058 109.112671 
L 177.877642 110.833297 
L 177.899288 109.112671 
L 177.942579 109.112671 
L 178.115747 106.015545 
L 178.137393 107.392046 
L 178.171107 109.112671 
L 178.658287 103.262543 
L 178.831456 107.04792 
L 178.874747 106.35967 
L 178.918038 107.736171 
L 178.939691 107.04792 
L 178.961337 108.424421 
L 179.049007 107.736171 
L 179.070654 108.080296 
L 179.113945 107.392046 
L 179.157238 105.67142 
L 179.243823 106.703795 
L 179.395344 109.456797 
L 179.41699 108.424421 
L 179.568511 106.015545 
L 179.698385 107.736171 
L 179.72003 107.392046 
L 179.741676 107.392046 
L 179.784967 108.424421 
L 179.828259 107.736171 
L 179.914841 108.080296 
L 179.958132 106.703795 
L 179.979778 106.703795 
L 180.044715 105.327294 
L 180.109652 105.67142 
L 180.199662 105.327294 
L 180.289719 108.424421 
L 180.32902 107.736171 
L 180.753147 107.736171 
L 180.883512 99.821292 
L 180.905158 99.821292 
L 181.056921 102.574293 
L 181.078566 102.230168 
L 181.121858 103.262543 
L 181.165149 102.574293 
L 181.20844 104.294919 
L 181.338314 103.950794 
L 181.468189 101.541917 
L 181.602199 103.950794 
L 181.645491 104.639044 
L 181.69871 104.294919 
L 181.936819 101.541917 
L 181.958464 101.886043 
L 181.98011 101.886043 
L 182.023401 101.197792 
L 182.045047 102.574293 
L 182.088339 101.541917 
L 182.109984 102.918418 
L 182.174921 102.574293 
L 182.304796 99.821292 
L 182.456319 103.262543 
L 182.477965 101.886043 
L 182.521256 102.574293 
L 182.959335 95.003539 
L 183.024273 95.691789 
L 183.436458 101.886043 
L 183.458104 100.853667 
L 183.47975 100.853667 
L 183.566332 101.886043 
L 183.587977 101.197792 
L 183.696204 99.821292 
L 183.826079 101.541917 
L 183.86937 101.541917 
L 184.345579 93.971164 
L 184.367224 95.003539 
L 184.475454 96.035915 
L 184.518746 95.347664 
L 184.540391 96.724165 
L 184.562037 96.035915 
L 184.648626 97.06829 
L 184.605329 95.691789 
L 184.670272 96.035915 
L 184.691917 96.035915 
L 185.057942 97.412415 
L 185.079588 98.788916 
L 185.166205 97.756541 
L 185.187851 98.100666 
L 185.252788 97.412415 
L 185.317762 96.035915 
L 185.382699 96.38004 
L 185.469283 97.756541 
L 185.490929 96.724165 
L 185.51266 96.724165 
L 185.534305 97.06829 
L 185.555962 95.691789 
L 185.708989 94.315289 
L 185.817217 96.38004 
L 185.838862 95.691789 
L 185.882153 96.38004 
L 185.968737 94.659414 
L 186.012028 96.035915 
L 186.033674 94.315289 
L 186.076967 94.659414 
L 186.141904 93.282913 
L 186.185197 93.627038 
L 186.358363 96.724165 
L 186.509897 94.659414 
L 186.618151 96.38004 
L 186.639796 95.691789 
L 186.661441 95.347664 
L 186.683087 96.035915 
L 186.74806 97.06829 
L 186.813 96.724165 
L 186.856291 95.691789 
L 187.22117 98.444791 
L 187.35105 99.821292 
L 187.372695 100.165417 
L 187.416675 99.133041 
L 187.439442 99.477166 
L 187.482734 98.100666 
L 187.526025 99.477166 
L 187.591085 98.788916 
L 187.61273 99.477166 
L 187.638698 100.509542 
L 187.684683 98.788916 
L 187.716158 98.788916 
L 187.86752 96.035915 
L 187.95782 98.100666 
L 188.00397 97.412415 
L 188.043642 98.788916 
L 188.08458 98.100666 
L 188.13082 97.756541 
L 188.152465 98.100666 
L 188.189418 98.788916 
L 188.299415 96.38004 
L 188.321115 96.724165 
L 188.465881 99.821292 
L 188.645853 96.724165 
L 188.788786 97.756541 
L 188.875632 98.788916 
L 188.853812 97.412415 
L 188.940832 98.444791 
L 188.962944 98.444791 
L 189.006235 98.788916 
L 189.577293 90.185787 
L 189.608654 92.594663 
L 189.708813 92.250538 
L 189.730458 92.250538 
L 189.881977 95.691789 
L 189.903622 95.347664 
L 189.925268 95.003539 
L 189.946914 96.38004 
L 189.990205 95.691789 
L 190.076788 97.412415 
L 190.098434 96.035915 
L 190.249985 93.627038 
L 190.141726 96.38004 
L 190.314922 94.315289 
L 190.42315 96.724165 
L 190.444796 95.691789 
L 190.466441 95.691789 
L 190.488086 97.06829 
L 190.553024 96.035915 
L 190.639607 95.347664 
L 190.617961 96.724165 
L 190.661253 95.691789 
L 190.72619 95.347664 
L 190.812774 97.06829 
L 190.83442 96.724165 
L 190.856066 97.412415 
L 190.877711 97.412415 
L 191.041577 100.853667 
L 191.063223 99.821292 
L 191.149807 100.853667 
L 191.171453 101.197792 
L 191.193099 100.509542 
L 191.519088 102.918418 
L 191.540734 102.574293 
L 191.605672 103.262543 
L 191.627317 102.230168 
L 191.648963 102.918418 
L 191.670609 101.541917 
L 191.713901 102.574293 
L 191.735547 101.886043 
L 191.800484 102.918418 
L 191.822129 102.230168 
L 191.843774 102.230168 
L 191.995296 103.606669 
L 192.125172 101.541917 
L 192.146818 101.886043 
L 192.319984 103.950794 
L 192.516559 100.509542 
L 192.538205 101.541917 
L 192.735546 103.950794 
L 192.800484 103.262543 
L 192.778837 104.294919 
L 192.822129 103.950794 
L 192.843775 104.294919 
L 192.865421 102.918418 
L 192.887067 103.606669 
L 193.04996 99.821292 
L 193.102225 100.165417 
L 193.235455 98.788916 
L 193.257101 99.133041 
L 193.413219 102.574293 
L 193.471738 102.918418 
L 193.596041 100.509542 
L 193.617687 100.853667 
L 193.639332 99.821292 
L 193.682624 100.509542 
L 193.811123 98.788916 
L 193.882494 98.788916 
L 194.014853 100.853667 
L 194.101438 99.477166 
L 194.144731 99.821292 
L 194.295962 101.541917 
L 194.650015 96.724165 
L 194.801836 98.788916 
L 194.845497 99.133041 
L 195.0189 95.691789 
L 195.040545 96.724165 
L 195.115953 95.347664 
L 195.137598 95.691789 
L 195.254867 93.971164 
L 195.276513 95.003539 
L 195.298159 95.003539 
L 195.365806 96.724165 
L 195.41918 95.691789 
L 195.521684 93.282913 
L 196.2094 102.230168 
L 196.256507 101.541917 
L 196.361079 101.541917 
L 196.476466 99.477166 
L 196.506361 99.477166 
L 196.655858 96.035915 
L 196.69915 97.412415 
L 196.720796 95.691789 
L 196.764088 96.38004 
L 196.934764 92.594663 
L 196.956411 93.282913 
L 197.010563 91.906413 
L 197.046316 91.906413 
L 197.15766 90.529912 
L 197.242277 91.562287 
L 197.382711 93.971164 
L 197.490941 92.594663 
L 197.552489 92.594663 
L 197.574136 92.938788 
L 197.617426 91.906413 
L 197.663855 91.906413 
L 197.750439 93.627038 
L 198.143241 89.497536 
L 198.188583 90.185787 
L 198.364298 92.250538 
L 198.398503 91.906413 
L 198.529031 92.594663 
L 198.614327 92.250538 
L 198.769167 89.153411 
L 198.820291 90.185787 
L 198.885311 89.497536 
L 198.91672 88.121036 
L 198.939584 89.497536 
L 198.995792 90.185787 
L 199.065031 89.841661 
L 199.1028 89.841661 
L 199.214348 91.906413 
L 199.249082 91.906413 
L 199.382818 90.529912 
L 199.406924 90.874037 
L 199.42857 89.841661 
L 199.573163 88.121036 
L 199.595069 88.809286 
L 199.617767 87.77691 
L 199.691337 88.465161 
L 199.715596 88.121036 
L 199.737481 89.153411 
L 199.770525 88.809286 
L 199.83878 90.185787 
L 199.8821 89.841661 
L 199.925391 89.841661 
L 200.574882 79.173781 
L 200.682229 80.550282 
L 200.703925 80.206156 
L 200.752137 79.862031 
L 200.93104 83.991533 
L 200.953174 83.647408 
L 200.9776 83.991533 
L 201.115641 87.432785 
L 201.137287 86.40041 
L 201.158933 86.40041 
L 201.247813 88.465161 
L 201.389068 87.77691 
L 201.410713 88.121036 
L 201.432855 88.121036 
L 201.519485 89.497536 
L 201.542051 88.465161 
L 201.630975 88.465161 
L 201.652621 90.185787 
L 201.728268 89.153411 
L 201.834328 86.744535 
L 201.855973 87.432785 
L 201.877618 87.432785 
L 201.992239 88.465161 
L 202.013887 88.465161 
L 202.147343 91.218162 
L 202.320261 88.809286 
L 202.341907 88.809286 
L 202.586785 86.744535 
L 202.743141 89.497536 
L 202.767973 88.809286 
L 202.811814 90.185787 
L 202.833914 89.841661 
L 202.855561 89.841661 
L 202.920498 91.218162 
L 202.968396 90.529912 
L 203.140669 87.77691 
L 203.267038 90.185787 
L 203.300333 89.497536 
L 203.321993 90.874037 
L 203.401029 90.874037 
L 203.455581 92.594663 
L 203.511498 91.562287 
L 203.664243 88.465161 
L 203.68604 89.153411 
L 203.772833 90.185787 
L 203.794479 89.497536 
L 203.816781 89.497536 
L 204.238741 95.691789 
L 204.260454 94.659414 
L 204.731575 88.465161 
L 204.777857 89.497536 
L 204.842794 88.809286 
L 204.886086 87.77691 
L 204.907733 89.153411 
L 204.951895 88.465161 
L 205.137531 91.218162 
L 205.263544 91.218162 
L 205.28522 94.315289 
L 205.371803 93.627038 
L 205.394018 93.627038 
L 205.524305 91.218162 
L 205.54595 91.906413 
L 205.610901 90.874037 
L 205.707484 90.874037 
L 205.770724 87.77691 
L 205.836006 88.121036 
L 205.992552 88.121036 
L 206.034913 87.77691 
L 206.171337 90.185787 
L 206.192983 89.497536 
L 206.214629 90.874037 
L 206.257921 90.185787 
L 206.344505 92.250538 
L 206.387795 91.218162 
L 206.409441 91.562287 
L 206.431087 90.529912 
L 206.978749 84.679784 
L 207.108623 87.77691 
L 207.142977 87.77691 
L 207.252662 88.809286 
L 207.274308 88.465161 
L 207.577355 91.906413 
L 207.750524 89.153411 
L 207.815462 88.809286 
L 207.902044 91.218162 
L 207.967021 91.562287 
L 208.010312 90.529912 
L 208.160587 94.315289 
L 208.222853 94.659414 
L 208.288764 92.938788 
L 208.310463 93.971164 
L 208.375417 91.906413 
L 208.41871 92.938788 
L 208.440421 91.562287 
L 208.462066 91.562287 
L 208.483712 91.562287 
L 208.591941 89.497536 
L 209.020617 94.315289 
L 209.107201 93.971164 
L 209.237075 91.906413 
L 209.258721 91.906413 
L 209.280367 92.250538 
L 209.302013 91.218162 
L 209.455263 89.497536 
L 209.479396 90.185787 
L 209.522726 88.809286 
L 209.544371 89.497536 
L 209.60931 88.121036 
L 209.652601 88.465161 
L 209.804147 91.562287 
L 209.847438 90.874037 
L 209.89073 91.906413 
L 209.912375 91.218162 
L 209.998961 93.282913 
L 210.020606 91.906413 
L 210.21175 90.185787 
L 210.341625 92.594663 
L 210.363272 92.250538 
L 210.406563 93.627038 
L 210.514791 93.282913 
L 210.710462 89.497536 
L 210.753754 90.185787 
L 211.215879 95.691789 
L 211.345754 94.315289 
L 211.547995 90.874037 
L 211.569641 91.562287 
L 211.591288 92.250538 
L 211.634579 90.874037 
L 211.656241 91.218162 
L 211.699533 90.185787 
L 211.76447 90.529912 
L 211.851054 93.282913 
L 211.894345 92.594663 
L 211.937637 92.594663 
L 212.089156 90.529912 
L 212.110802 91.218162 
L 212.132448 90.185787 
L 212.175739 90.185787 
L 212.328875 87.08866 
L 212.350521 87.77691 
L 212.372167 88.121036 
L 212.393812 87.432785 
L 212.502042 86.40041 
L 212.631917 89.153411 
L 212.653562 88.465161 
L 212.696854 89.497536 
L 212.740145 88.121036 
L 212.76179 88.121036 
L 212.826727 88.465161 
L 212.928842 86.744535 
L 213.388592 90.874037 
L 213.410238 91.906413 
L 213.475176 91.218162 
L 213.626696 88.121036 
L 213.669987 89.497536 
L 213.734925 88.465161 
L 213.886647 85.023909 
L 213.994899 87.08866 
L 214.016545 86.744535 
L 214.038193 86.056284 
L 214.059838 87.432785 
L 214.103147 86.40041 
L 214.211456 88.121036 
L 214.406267 85.368034 
L 214.514495 86.744535 
L 214.579432 87.432785 
L 214.644369 85.712159 
L 214.687662 87.08866 
L 214.752599 86.40041 
L 214.817573 85.023909 
L 214.839219 86.744535 
L 214.860866 85.712159 
L 214.94745 88.121036 
L 214.990741 87.08866 
L 215.012387 87.432785 
L 215.034034 86.056284 
L 215.077325 85.368034 
L 215.098971 85.712159 
L 215.528794 89.497536 
L 215.55044 88.809286 
L 215.680317 87.08866 
L 215.723609 87.77691 
L 215.766899 86.744535 
L 216.178184 79.517906 
L 216.264806 80.206156 
L 216.373035 81.238532 
L 216.329743 79.517906 
L 216.394681 80.894407 
L 216.416326 81.238532 
L 216.481263 80.550282 
L 216.502914 80.894407 
L 216.524906 80.894407 
L 216.677674 77.453155 
L 216.742612 78.485531 
L 216.785904 78.141405 
L 216.915779 77.10903 
L 216.850841 78.485531 
L 216.937424 77.453155 
L 216.95907 78.141405 
L 216.980716 76.764905 
L 217.024008 76.764905 
L 217.0673 75.044279 
L 217.153881 75.388404 
L 217.262109 77.10903 
L 217.781401 69.538276 
L 217.911275 72.979528 
L 217.954567 72.635403 
L 217.976212 73.323653 
L 218.019504 72.291277 
L 218.04115 72.979528 
L 218.171026 70.914777 
L 218.192671 71.603027 
L 218.235963 69.882401 
L 218.279254 70.570651 
L 218.3009 69.538276 
L 218.322546 70.570651 
L 218.344192 68.850026 
L 218.40913 69.538276 
L 218.430775 69.538276 
L 218.495713 68.5059 
L 218.603942 70.914777 
L 218.625588 70.570651 
L 218.820401 67.1294 
L 218.906985 68.850026 
L 218.928631 68.5059 
L 218.950276 67.473525 
L 218.971922 68.850026 
L 219.03686 68.161775 
L 219.080152 69.882401 
L 219.145089 68.5059 
L 219.274964 66.441149 
L 219.405274 68.5059 
L 219.42692 68.161775 
L 219.842297 64.032273 
L 219.92888 61.967522 
L 219.950526 62.999898 
L 220.166984 65.752899 
L 220.340151 62.655772 
L 220.44838 64.376398 
L 220.383443 61.967522 
L 220.470026 63.344023 
L 220.584066 65.064649 
L 220.605711 63.688148 
L 220.649002 65.064649 
L 220.7356 67.473525 
L 220.757246 66.785275 
L 220.865494 64.720523 
L 220.887139 65.752899 
L 220.908784 66.441149 
L 220.93043 65.064649 
L 220.973721 65.064649 
L 221.017013 63.688148 
L 221.08195 65.064649 
L 221.103596 64.720523 
L 221.125242 65.752899 
L 221.168534 65.064649 
L 221.19018 65.408774 
L 221.211825 64.376398 
L 221.320053 61.967522 
L 221.363344 64.032273 
L 221.449928 63.688148 
L 221.471575 62.999898 
L 221.49322 64.720523 
L 221.514866 63.688148 
L 221.60145 66.441149 
L 222.192945 74.700154 
L 222.257882 72.979528 
L 222.301173 74.011903 
L 222.344465 74.011903 
L 222.409403 71.258902 
L 222.495986 71.947152 
L 222.560924 73.667778 
L 222.604215 72.979528 
L 222.73409 70.570651 
L 222.755735 71.258902 
L 222.799027 70.226526 
L 222.820674 70.226526 
L 222.863966 70.226526 
L 222.972194 67.1294 
L 222.993839 68.850026 
L 223.058775 67.473525 
L 223.102067 65.408774 
L 223.188651 66.097024 
L 223.231943 67.473525 
L 223.296882 67.1294 
L 223.426756 65.064649 
L 223.448402 66.441149 
L 223.534985 65.408774 
L 223.578278 65.752899 
L 223.643216 64.032273 
L 223.686507 66.097024 
L 223.751445 64.720523 
L 223.773091 63.344023 
L 224.167103 66.441149 
L 224.210393 66.097024 
L 224.296975 65.064649 
L 224.27533 66.441149 
L 224.318621 65.752899 
L 224.36741 66.441149 
L 224.389055 65.408774 
L 224.504575 66.785275 
L 224.609035 67.473525 
L 224.5624 66.441149 
L 224.631534 67.1294 
L 224.653976 67.473525 
L 224.794043 65.064649 
L 224.815689 65.752899 
L 224.865143 64.376398 
L 224.887617 64.376398 
L 225.01056 61.279272 
L 225.032205 62.655772 
L 225.088659 62.655772 
L 225.110304 63.344023 
L 225.153595 61.967522 
L 225.196887 62.999898 
L 225.218533 62.999898 
L 225.28347 65.064649 
L 225.348407 64.032273 
L 225.43499 61.623397 
L 225.478282 62.311647 
L 225.564864 64.032273 
L 225.58651 63.344023 
L 225.608157 62.999898 
L 225.629802 64.376398 
L 225.651449 64.032273 
L 225.80297 67.1294 
L 225.824616 66.441149 
L 225.867908 67.81765 
L 225.889555 66.785275 
L 225.9112 68.161775 
L 225.932846 67.81765 
L 226.356017 64.032273 
L 226.377664 62.655772 
L 226.420957 64.720523 
L 226.464249 63.688148 
L 226.485895 63.688148 
L 226.529186 62.311647 
L 226.594123 62.999898 
L 226.615769 62.999898 
L 226.702353 65.752899 
L 226.723999 64.720523 
L 226.832227 62.999898 
L 226.940455 65.752899 
L 226.9621 65.064649 
L 226.983747 64.720523 
L 227.091988 67.81765 
L 227.113656 67.473525 
L 227.156947 67.81765 
L 227.438342 63.344023 
L 227.568218 66.097024 
L 227.719738 64.376398 
L 227.95784 68.850026 
L 228.044423 67.81765 
L 228.10936 66.441149 
L 228.552033 72.635403 
L 228.573679 72.291277 
L 228.61697 72.979528 
L 228.681908 71.258902 
L 228.703553 72.635403 
L 228.790137 71.258902 
L 228.920011 68.161775 
L 228.941657 69.194151 
L 229.006593 68.5059 
L 229.049885 67.473525 
L 229.136468 67.81765 
L 229.179759 69.194151 
L 229.244697 68.161775 
L 229.287987 66.441149 
L 229.352925 68.161775 
L 229.374571 67.81765 
L 229.396216 68.5059 
L 229.417862 69.538276 
L 229.482799 68.5059 
L 229.569382 67.1294 
L 229.591028 67.81765 
L 229.699256 70.226526 
L 229.742549 68.5059 
L 229.764195 68.5059 
L 229.807487 67.81765 
L 229.872424 69.194151 
L 229.980652 68.161775 
L 230.110526 71.258902 
L 230.132172 70.226526 
L 230.175465 70.226526 
L 230.262048 68.161775 
L 230.283693 68.850026 
L 230.666945 70.914777 
L 230.688958 70.570651 
L 230.80443 73.323653 
L 230.991268 69.538276 
L 231.012977 69.882401 
L 231.056941 68.850026 
L 231.127325 68.161775 
L 231.235554 65.752899 
L 231.2572 66.441149 
L 231.278845 66.785275 
L 231.300502 65.408774 
L 231.322185 65.408774 
L 231.47372 63.344023 
L 231.495365 64.720523 
L 231.538657 62.999898 
L 231.560303 63.688148 
L 231.690178 60.246896 
L 231.711823 60.935147 
L 231.733469 61.623397 
L 231.755114 60.591021 
L 231.77676 60.591021 
L 231.841697 58.52627 
L 231.928934 58.870395 
L 231.95058 59.558646 
L 232.015518 58.182145 
L 232.102101 57.14977 
L 232.188685 59.902771 
L 232.231976 58.870395 
L 232.318564 55.773269 
L 232.340224 56.461519 
L 232.442195 55.773269 
L 232.880594 60.246896 
L 232.902239 59.902771 
L 232.923885 59.214521 
L 232.945531 60.246896 
L 232.967176 60.246896 
L 232.988822 60.935147 
L 233.010469 59.214521 
L 233.05376 60.591021 
L 233.226929 56.461519 
L 233.248575 57.493895 
L 233.270221 58.182145 
L 233.313512 56.805644 
L 233.335158 56.805644 
L 233.400094 57.14977 
L 233.443386 55.773269 
L 233.486679 58.182145 
L 233.551622 56.117394 
L 233.638215 53.708518 
L 233.681507 54.396768 
L 233.703153 55.429144 
L 233.724799 54.052643 
L 233.76809 54.052643 
L 233.811381 53.364393 
L 233.833026 54.396768 
L 233.876317 54.052643 
L 233.919608 57.14977 
L 234.006192 56.117394 
L 234.136067 58.52627 
L 234.17936 57.493895 
L 234.244298 56.117394 
L 234.28759 56.461519 
L 234.417466 59.902771 
L 234.439112 59.214521 
L 234.482402 59.902771 
L 234.504047 58.52627 
L 234.568984 59.902771 
L 234.612275 58.870395 
L 234.989768 62.311647 
L 235.076352 64.720523 
L 235.119644 63.688148 
L 235.162935 64.032273 
L 235.18458 63.344023 
L 235.249516 64.032273 
L 235.3361 61.279272 
L 235.357746 60.591021 
L 235.379391 61.967522 
L 235.422684 61.967522 
L 235.444329 61.623397 
L 235.530912 63.688148 
L 235.552558 63.344023 
L 235.660788 62.311647 
L 235.704079 63.344023 
L 235.769016 62.655772 
L 235.855599 61.623397 
L 235.985474 65.064649 
L 236.00712 64.376398 
L 236.028766 64.032273 
L 236.050411 65.408774 
L 236.072056 64.376398 
L 236.093701 65.408774 
L 236.115347 63.688148 
L 236.15864 65.064649 
L 236.251918 63.688148 
L 236.381792 67.1294 
L 236.490022 65.408774 
L 236.511667 66.785275 
L 236.59825 66.441149 
L 236.706479 65.064649 
L 236.728125 65.752899 
L 236.771417 66.097024 
L 237.277011 66.097024 
L 237.378872 75.388404 
L 237.401918 74.356028 
L 237.44551 75.044279 
L 237.511214 73.323653 
L 237.53286 74.700154 
L 237.600106 73.667778 
L 237.753251 69.882401 
L 237.774896 71.258902 
L 237.839834 69.882401 
L 237.969708 66.097024 
L 237.991354 66.785275 
L 238.013 68.161775 
L 238.077936 67.473525 
L 238.121228 66.097024 
L 238.142874 67.81765 
L 238.164519 66.441149 
L 238.251103 68.850026 
L 238.272749 68.161775 
L 238.294395 68.161775 
L 238.359332 65.752899 
L 238.435017 67.1294 
L 238.475592 69.194151 
L 238.540733 68.161775 
L 238.600061 68.161775 
L 238.643353 68.850026 
L 238.664998 67.1294 
L 238.70829 68.161775 
L 238.751583 68.161775 
L 238.816528 64.720523 
L 238.881466 66.097024 
L 238.97181 67.473525 
L 239.507219 64.032273 
L 239.616607 65.752899 
L 239.864807 61.279272 
L 239.908098 61.623397 
L 240.038771 58.52627 
L 240.061178 59.214521 
L 240.126148 58.182145 
L 240.256035 54.740893 
L 240.277689 55.773269 
L 240.513025 51.643767 
L 240.556317 51.643767 
L 240.686191 49.23489 
L 240.776712 50.611391 
L 240.798357 49.579016 
L 240.863294 49.579016 
L 240.928231 52.332017 
L 240.993212 50.267266 
L 241.101442 47.85839 
L 241.123088 49.23489 
L 241.481499 54.396768 
L 241.503144 53.364393 
L 241.52479 53.364393 
L 241.568081 56.805644 
L 241.633018 56.117394 
L 241.719661 54.052643 
L 241.762952 54.396768 
L 241.784598 55.085018 
L 241.851801 53.708518 
L 241.970782 51.299642 
L 241.993508 51.987892 
L 242.015154 50.611391 
L 242.058445 50.955516 
L 242.14503 47.514265 
L 242.188577 48.202515 
L 242.210223 49.23489 
L 242.275159 47.170139 
L 242.383388 45.105388 
L 242.535331 48.202515 
L 242.556977 47.170139 
L 242.621914 49.23489 
L 242.643561 47.514265 
L 242.665207 47.85839 
L 242.708498 46.826014 
L 242.773435 46.137764 
L 242.75179 47.170139 
L 242.795081 46.481889 
L 242.838372 49.23489 
L 242.924955 48.202515 
L 242.989892 48.890765 
L 243.011538 47.170139 
L 243.054828 49.23489 
L 243.117129 47.514265 
L 243.225357 45.105388 
L 243.247003 46.826014 
L 243.290294 45.449514 
L 243.651287 49.579016 
L 243.672933 51.299642 
L 243.759743 50.611391 
L 243.803034 51.299642 
L 243.846325 49.23489 
L 243.932907 51.299642 
L 243.954553 49.23489 
L 244.107392 46.481889 
L 244.129038 47.170139 
L 244.172426 45.793639 
L 244.237351 45.793639 
L 244.367249 43.040637 
L 244.475601 40.287636 
L 244.497247 42.008262 
L 244.540538 42.008262 
L 244.648767 37.87876 
L 244.692058 39.25526 
L 244.756996 39.943511 
L 244.73535 38.911135 
L 244.781072 39.25526 
L 244.802718 38.56701 
L 244.825368 39.943511 
L 244.868659 39.943511 
L 244.911951 42.696512 
L 245.020181 42.008262 
L 245.106763 43.728888 
L 245.150054 42.696512 
L 245.251588 40.287636 
L 245.29488 40.631761 
L 245.316526 42.008262 
L 245.381463 39.599385 
L 245.468047 36.846384 
L 246.091161 29.963881 
L 246.156097 30.652131 
L 246.243011 30.996256 
L 246.37633 29.27563 
L 246.527853 26.522629 
L 246.592791 26.522629 
L 246.701038 25.146128 
L 246.982436 27.899129 
L 247.004082 27.899129 
L 247.133955 26.178504 
L 247.263854 24.457878 
L 247.285499 24.457878 
L 247.350436 25.146128 
L 247.393727 24.457878 
L 247.415374 24.457878 
L 247.545248 23.425502 
L 247.610186 22.737252 
L 247.631832 23.769627 
L 248.057197 27.899129 
L 248.100489 29.619755 
L 248.165426 29.27563 
L 248.2953 28.58738 
L 248.316946 28.58738 
L 248.446821 26.178504 
L 248.641666 23.425502 
L 248.663312 23.425502 
L 248.814835 20.672501 
L 248.858128 20.672501 
L 248.923067 19.98425 
L 248.966359 20.672501 
L 248.988005 20.672501 
L 249.117883 22.393127 
L 249.139529 22.393127 
L 249.204467 23.425502 
L 249.24776 23.081377 
L 249.269406 23.081377 
L 249.420929 20.328376 
L 249.464221 20.328376 
L 249.529159 19.296 
L 249.572568 20.328376 
L 249.615859 20.328376 
L 249.789025 21.704876 
L 250.153221 22.737252 
L 250.34812 25.834378 
L 250.414085 25.146128 
L 250.457394 25.490253 
L 250.500775 25.490253 
L 250.630907 27.555004 
L 250.769798 29.963881 
L 250.834799 29.963881 
L 250.92144 30.308006 
L 250.943086 29.963881 
L 251.051422 29.963881 
L 251.116359 30.652131 
L 251.246234 28.58738 
L 251.26788 28.58738 
L 251.332818 29.963881 
L 251.376111 29.619755 
L 251.397757 29.619755 
L 251.527631 30.652131 
L 251.549278 30.652131 
L 251.614215 29.27563 
L 251.657508 29.963881 
L 251.765738 29.963881 
L 251.831011 29.619755 
L 251.853415 30.308006 
L 251.896708 30.308006 
L 251.961645 28.931505 
L 252.516475 21.016626 
L 252.646651 19.640125 
L 252.715029 19.296 
L 252.888198 21.704876 
L 252.93149 21.704876 
L 253.061365 24.457878 
L 253.580863 30.996256 
L 253.602509 30.996256 
L 253.680369 29.963881 
L 253.702457 31.340381 
L 253.767409 31.340381 
L 253.91893 33.405132 
L 253.983868 33.405132 
L 254.113742 32.372757 
L 254.135388 34.093383 
L 254.623344 37.534634 
L 254.688282 36.846384 
L 254.731575 37.190509 
L 254.774866 37.190509 
L 254.883097 36.846384 
L 254.991325 38.56701 
L 255.034617 37.534634 
L 255.056264 37.534634 
L 255.121516 37.190509 
L 255.216097 38.222885 
L 255.288559 37.534634 
L 255.423385 39.943511 
L 255.558164 38.911135 
L 255.579811 38.911135 
L 255.709685 38.222885 
L 255.796269 39.599385 
L 255.817915 38.911135 
L 255.861207 38.911135 
L 255.947799 38.56701 
L 255.970462 38.911135 
L 256.019285 38.911135 
L 256.062786 37.190509 
L 256.13746 37.87876 
L 256.159106 37.87876 
L 256.348998 40.631761 
L 256.370644 40.631761 
L 256.565454 43.728888 
L 256.608746 43.728888 
L 256.673683 42.352387 
L 256.716975 42.696512 
L 256.760266 42.696512 
L 256.89015 44.417138 
L 256.955132 44.417138 
L 256.976779 45.793639 
L 257.063361 44.417138 
L 257.128298 44.417138 
L 257.258175 46.137764 
L 257.279821 46.137764 
L 257.431341 47.85839 
L 257.561216 46.137764 
L 257.582862 46.137764 
L 257.6478 46.826014 
L 257.691091 46.481889 
L 257.734383 46.481889 
L 257.820966 47.85839 
L 257.842612 47.514265 
L 257.885903 47.514265 
L 257.972526 46.481889 
L 258.1024 48.54664 
L 258.124046 48.54664 
L 258.188984 48.202515 
L 258.232276 48.54664 
L 258.275567 48.54664 
L 258.405444 46.826014 
L 258.42709 46.826014 
L 258.470382 48.54664 
L 258.993517 54.396768 
L 259.115331 54.396768 
L 259.245205 51.643767 
L 259.266852 51.643767 
L 259.396755 51.987892 
L 259.440075 51.987892 
L 259.571045 54.740893 
L 259.59269 54.740893 
L 259.703149 54.052643 
L 259.744664 54.052643 
L 259.831246 52.676142 
L 259.85498 53.020267 
L 259.899218 53.020267 
L 260.050383 55.085018 
L 260.072028 55.085018 
L 260.201902 56.461519 
L 260.223548 56.461519 
L 260.353424 53.708518 
L 260.37507 53.708518 
L 260.526589 51.643767 
L 260.634818 53.364393 
L 261.004192 53.708518 
L 261.141066 55.773269 
L 261.23585 56.805644 
L 261.387371 54.396768 
L 261.430663 54.396768 
L 261.560538 54.052643 
L 261.712057 56.805644 
L 261.733702 56.117394 
L 261.798641 56.117394 
L 261.863577 55.773269 
L 261.906869 56.117394 
L 261.950161 56.117394 
L 262.036743 55.773269 
L 262.166618 58.182145 
L 262.188264 58.182145 
L 262.274845 56.805644 
L 262.296491 57.14977 
L 262.339783 57.14977 
L 262.599552 59.558646 
L 262.66449 58.52627 
L 262.707782 58.870395 
L 262.751074 58.870395 
L 262.794364 60.246896 
L 263.387745 52.676142 
L 263.517618 53.364393 
L 263.539264 53.364393 
L 263.669291 54.740893 
L 263.712592 54.740893 
L 263.777528 53.364393 
L 263.820819 54.052643 
L 263.864111 54.052643 
L 264.015628 52.676142 
L 264.145504 54.396768 
L 264.167149 54.396768 
L 264.253731 54.052643 
L 264.275378 54.396768 
L 264.318669 54.396768 
L 264.405252 53.364393 
L 264.426897 54.396768 
L 264.491835 54.396768 
L 264.556772 56.117394 
L 264.600063 55.773269 
L 264.643355 55.773269 
L 264.729939 56.117394 
L 264.859814 54.396768 
L 264.881459 54.396768 
L 264.968042 55.773269 
L 265.825679 67.1294 
L 265.957391 67.1294 
L 266.110979 69.882401 
L 266.244041 69.882401 
L 266.42717 74.011903 
L 266.466079 74.011903 
L 266.595955 77.10903 
L 266.642633 77.10903 
L 266.79718 79.862031 
L 266.818826 79.862031 
L 266.948702 80.894407 
L 266.991993 80.894407 
L 267.100223 81.238532 
L 267.143514 80.894407 
L 267.8397 89.841661 
L 268.056157 88.121036 
L 268.121093 88.121036 
L 268.250969 85.023909 
L 268.294261 85.023909 
L 268.48907 82.270908 
L 268.532363 82.270908 
L 268.705529 83.303283 
L 268.748819 83.303283 
L 268.90034 82.615033 
L 268.943631 82.615033 
L 269.116797 85.023909 
L 269.160089 84.335659 
L 269.225027 84.335659 
L 269.311611 83.647408 
L 269.674011 83.303283 
L 269.760631 81.926782 
L 269.782277 82.615033 
L 269.847221 82.615033 
L 270.216176 86.744535 
L 270.237821 86.744535 
L 270.389341 89.497536 
L 270.410987 89.497536 
L 270.540863 88.465161 
L 270.605802 88.465161 
L 270.735677 86.056284 
L 270.800614 86.056284 
L 270.930489 87.77691 
L 270.973781 87.77691 
L 271.125303 89.841661 
L 271.168593 89.841661 
L 271.298467 87.432785 
L 271.471635 87.432785 
L 272.026386 93.282913 
L 272.11297 93.282913 
L 272.459303 89.497536 
L 272.502595 89.497536 
L 272.632468 87.08866 
L 272.783988 87.08866 
L 272.957153 89.153411 
L 273.06538 89.153411 
L 273.195256 87.432785 
L 273.260195 87.432785 
L 273.346779 86.744535 
L 273.4983 88.809286 
L 273.541591 88.809286 
L 273.649822 87.08866 
L 274.18835 89.497536 
L 274.274879 90.529912 
L 274.407645 88.121036 
L 274.47258 88.121036 
L 274.645747 86.056284 
L 274.753975 86.056284 
L 274.883849 87.77691 
L 274.948785 87.77691 
L 275.078661 90.185787 
L 275.121951 90.185787 
L 275.251823 90.529912 
L 275.31676 90.529912 
L 275.44664 88.121036 
L 275.481524 88.121036 
L 275.642954 89.153411 
L 275.686246 89.153411 
L 275.81612 91.562287 
L 276.341909 87.77691 
L 276.363555 87.77691 
L 276.450138 86.056284 
L 276.471784 86.40041 
L 276.536721 86.40041 
L 276.666596 88.465161 
L 276.731532 88.465161 
L 276.861689 91.218162 
L 276.926627 91.218162 
L 277.09979 93.282913 
L 277.121436 93.282913 
L 277.294604 90.874037 
L 277.316249 90.874037 
L 277.489417 89.841661 
L 277.511062 89.841661 
L 277.662616 92.250538 
L 277.684262 92.250538 
L 277.857429 91.218162 
L 277.879075 91.218162 
L 277.987304 90.529912 
L 278.660651 98.444791 
L 278.833817 96.035915 
L 278.855504 96.035915 
L 279.007025 93.627038 
L 279.050317 93.627038 
L 279.180189 91.906413 
L 279.245126 91.906413 
L 279.526533 94.659414 
L 279.548179 94.659414 
L 279.682096 92.594663 
L 279.840356 92.594663 
L 279.977374 93.282913 
L 280.034967 93.282913 
L 280.126631 92.594663 
L 280.148277 92.938788 
L 280.803209 92.938788 
L 280.89033 93.282913 
L 280.911997 92.938788 
L 280.998581 92.938788 
L 281.150101 94.659414 
L 281.193393 94.659414 
L 281.344915 97.412415 
L 281.388206 97.412415 
L 281.518081 99.133041 
L 281.799476 99.133041 
L 281.962531 101.197792 
L 281.999278 101.197792 
L 282.129157 99.133041 
L 282.194093 99.133041 
L 282.323993 99.821292 
L 282.708083 101.197792 
L 282.838283 104.294919 
L 282.903219 104.294919 
L 283.011449 104.639044 
L 283.16297 102.574293 
L 283.227907 102.574293 
L 283.31449 103.606669 
L 283.336135 102.918418 
L 283.42272 102.918418 
L 283.530951 101.197792 
L 283.660825 102.230168 
L 283.725761 102.230168 
L 283.877332 100.853667 
L 283.920623 100.853667 
L 284.028853 99.477166 
L 284.138167 100.165417 
L 284.224751 99.821292 
L 284.246444 100.165417 
L 284.441321 100.165417 
L 284.484783 100.509542 
L 284.94873 98.788916 
L 285.121898 96.38004 
L 285.143544 96.38004 
L 285.317536 98.444791 
L 285.339182 98.444791 
L 285.498351 101.197792 
L 285.541642 101.197792 
L 285.671516 103.606669 
L 285.758099 103.606669 
L 285.887972 107.04792 
L 285.95291 107.04792 
L 286.126077 110.489172 
L 286.277596 110.489172 
L 286.407471 109.800922 
L 286.515701 109.800922 
L 286.645776 110.833297 
L 286.667422 110.833297 
L 287.260086 114.962799 
L 287.368316 115.995175 
L 287.498194 112.898048 
L 287.584777 112.898048 
L 287.7363 110.145047 
L 287.801237 110.145047 
L 287.952759 112.553923 
L 288.147571 112.553923 
L 288.299091 110.833297 
L 288.472257 110.833297 
L 288.602131 110.489172 
L 288.642824 110.489172 
L 288.686116 109.112671 
L 288.751053 110.489172 
L 288.794346 110.489172 
L 288.837636 112.209798 
L 289.734313 103.950794 
L 289.84362 102.230168 
L 290.041367 103.606669 
L 290.084659 103.606669 
L 290.242064 106.35967 
L 290.263711 106.35967 
L 290.402443 109.112671 
L 290.467408 109.112671 
L 290.607018 112.553923 
L 290.700444 112.553923 
L 290.850641 115.995175 
L 290.968141 115.995175 
L 291.066421 119.092302 
L 291.179612 119.092302 
L 291.318782 121.845303 
L 291.400784 121.845303 
L 291.616759 120.124677 
L 291.737748 119.780552 
L 291.847054 121.845303 
L 292.16165 119.092302 
L 292.183296 119.092302 
L 292.307091 118.404051 
L 292.422823 119.092302 
L 292.543495 118.059926 
L 292.647642 118.059926 
L 292.761834 118.404051 
L 292.892471 116.3393 
L 292.98025 116.3393 
L 293.112044 118.404051 
L 293.184639 118.404051 
L 293.233801 121.157053 
L 293.677569 120.124677 
L 293.829459 116.683425 
L 293.916043 116.683425 
L 294.079698 118.748176 
L 294.246989 118.748176 
L 294.357113 118.404051 
L 294.514949 119.092302 
L 294.60209 119.092302 
L 294.777996 117.02755 
L 294.799642 117.02755 
L 294.912761 118.748176 
L 294.934407 118.748176 
L 295.065512 120.468802 
L 295.174328 120.468802 
L 295.282609 119.780552 
L 295.390839 120.124677 
L 295.982719 123.910054 
L 296.113897 121.501178 
L 296.325125 121.501178 
L 296.485642 119.436427 
L 296.55058 119.436427 
L 296.703683 118.748176 
L 296.79574 118.748176 
L 296.90611 118.404051 
L 297.015669 118.748176 
L 297.13428 118.404051 
L 297.307445 119.436427 
L 297.394805 119.436427 
L 297.468534 119.780552 
L 297.490179 119.436427 
L 297.584933 119.436427 
L 298.156752 126.663055 
L 298.378692 124.94243 
L 298.720839 124.94243 
L 298.80921 124.254179 
L 298.830856 124.598304 
L 298.900295 124.598304 
L 299.055194 128.039556 
L 299.141987 128.039556 
L 299.319996 127.007181 
L 299.386924 127.007181 
L 299.496926 129.071932 
L 299.523386 129.071932 
L 299.63723 130.448432 
L 299.748493 130.448432 
L 300.511176 133.545559 
L 300.709001 133.545559 
L 300.843936 134.577935 
L 300.899778 134.577935 
L 301.034867 132.857309 
L 301.089665 132.857309 
L 301.26537 135.954435 
L 301.342048 135.954435 
L 301.420773 135.266185 
L 301.442418 135.954435 
L 301.613397 135.954435 
L 301.765147 132.857309 
L 301.811349 132.857309 
L 301.923279 133.201434 
L 302.033784 132.169058 
L 302.164721 132.513183 
L 302.29609 134.92206 
L 302.422738 134.577935 
L 302.444602 134.577935 
L 302.554624 132.857309 
L 302.579568 132.857309 
L 302.743138 134.92206 
L 302.830197 134.92206 
L 302.947867 135.266185 
L 302.991286 135.266185 
L 303.130851 131.824933 
L 303.234216 131.824933 
L 303.399565 133.201434 
L 303.464502 133.201434 
L 303.595675 131.824933 
L 303.797866 133.545559 
L 303.973796 133.545559 
L 304.103797 133.201434 
L 304.599716 129.760182 
L 304.751236 126.663055 
L 304.837818 126.663055 
L 305.180092 130.448432 
L 305.223385 130.448432 
L 305.354076 134.233809 
L 305.46346 134.233809 
L 305.593828 133.545559 
L 305.7675 134.577935 
L 305.856252 134.577935 
L 305.964651 133.201434 
L 306.079526 133.889684 
L 306.102896 133.889684 
L 306.236925 134.92206 
L 306.280216 133.545559 
L 306.883786 139.395687 
L 306.948724 139.051562 
L 307.015085 139.051562 
L 307.142757 137.330936 
L 307.169025 137.330936 
L 307.284628 135.61031 
L 307.306274 135.61031 
L 307.42957 133.545559 
L 307.451386 133.545559 
L 307.542177 132.169058 
L 307.57165 132.857309 
L 307.680223 132.857309 
L 307.762476 133.545559 
L 307.794186 133.201434 
L 307.888064 133.201434 
L 308.013159 130.792558 
L 308.160432 130.792558 
L 308.274019 132.857309 
L 308.367673 132.857309 
L 308.614891 134.92206 
L 308.664436 134.92206 
L 308.778747 134.233809 
L 308.800481 134.233809 
L 308.921617 133.889684 
L 309.044479 134.577935 
L 309.175203 133.201434 
L 309.241127 132.857309 
L 309.340276 132.857309 
L 309.547441 134.577935 
L 309.569088 134.577935 
L 309.729413 133.545559 
L 309.816535 133.545559 
L 309.928289 134.233809 
L 309.950063 134.233809 
L 310.079937 133.889684 
L 310.209811 133.889684 
L 310.339689 134.233809 
L 310.469565 134.233809 
L 310.599481 132.857309 
L 310.621127 134.233809 
L 311.118944 132.169058 
L 311.249278 128.727807 
L 311.335861 128.727807 
L 311.487382 130.448432 
L 311.595612 130.448432 
L 311.725486 131.824933 
L 311.855362 132.857309 
L 311.96368 132.857309 
L 312.115202 133.545559 
L 312.223432 133.545559 
L 312.353306 133.201434 
L 312.484053 133.545559 
L 312.613928 133.201434 
L 312.635574 133.201434 
L 312.722157 132.169058 
L 312.743802 132.857309 
L 312.788493 132.857309 
L 313.238143 135.266185 
L 313.389664 137.330936 
L 313.497893 137.330936 
L 313.627767 135.954435 
L 313.757642 136.986811 
L 313.887552 136.642686 
L 314.169257 136.642686 
L 314.299166 137.675061 
L 314.429042 137.675061 
L 314.558916 139.051562 
L 314.818691 139.051562 
L 314.948566 139.739812 
L 315.353945 138.019186 
L 315.466124 135.954435 
L 315.487771 135.954435 
L 315.617645 134.233809 
L 315.856 136.29856 
L 315.877645 136.29856 
L 316.00752 138.363312 
L 316.137393 138.363312 
L 316.267268 139.051562 
L 316.397143 139.395687 
L 316.527019 139.395687 
L 316.656893 139.739812 
L 316.678538 139.739812 
L 316.808418 139.051562 
L 316.938293 139.395687 
L 317.089812 138.019186 
L 317.111458 138.019186 
L 317.565539 134.233809 
L 317.684838 132.169058 
L 317.706483 132.169058 
L 317.82068 131.480808 
L 317.842326 131.480808 
L 317.972199 131.136683 
L 318.134905 135.266185 
L 318.212091 135.266185 
L 318.312535 136.642686 
L 318.348728 136.642686 
L 318.506308 140.772188 
L 318.6107 140.772188 
L 318.801098 144.557565 
L 319.039202 144.557565 
L 319.170779 142.148688 
L 319.283885 143.181064 
L 319.323554 143.181064 
L 319.460055 144.21344 
L 319.576964 143.869314 
L 319.598609 143.869314 
L 319.731886 143.181064 
L 319.860546 143.869314 
L 319.990452 142.836939 
L 320.012098 142.836939 
L 320.141972 142.492814 
L 320.271847 143.525189 
L 320.293493 143.525189 
L 320.488305 140.772188 
L 320.553242 140.772188 
L 320.683116 139.739812 
L 320.812989 141.460438 
L 320.834635 141.460438 
L 320.954886 142.148688 
L 321.084761 140.772188 
L 321.366167 140.772188 
L 321.474396 141.116313 
L 321.90031 140.428063 
L 322.052793 136.29856 
L 322.161024 136.29856 
L 322.290898 138.019186 
L 322.420772 139.395687 
L 322.442418 139.395687 
L 322.593938 143.869314 
L 322.723813 143.869314 
L 322.875433 147.310566 
L 323.026953 147.310566 
L 323.215161 145.934065 
L 323.280099 145.934065 
L 323.409975 147.998817 
L 323.431621 147.998817 
L 323.453267 150.063568 
L 323.53985 148.342942 
L 323.583142 148.342942 
L 323.604788 149.031192 
L 323.648079 147.998817 
L 324.122113 141.804563 
L 324.143758 141.116313 
L 324.208695 142.148688 
L 324.230341 141.804563 
L 324.251987 141.460438 
L 324.295278 142.492814 
L 324.316924 142.492814 
L 324.547435 146.622316 
L 324.569081 146.622316 
L 324.763892 150.063568 
L 325.045287 146.278191 
L 325.066932 146.966441 
L 325.088578 146.966441 
L 325.153517 148.687067 
L 325.2401 148.342942 
L 325.261746 148.687067 
L 325.283392 147.310566 
L 325.305038 147.310566 
L 325.434923 144.557565 
L 325.521505 145.245815 
L 325.651381 148.342942 
L 325.694674 147.310566 
L 325.716319 147.654691 
L 325.781257 146.966441 
L 325.824548 145.934065 
L 326.445568 153.504819 
L 326.640383 150.407693 
L 326.662029 150.407693 
L 326.856842 153.160694 
L 327.039815 149.375317 
L 327.083107 149.375317 
L 327.212982 147.998817 
L 327.342856 149.375317 
L 327.516024 147.654691 
L 327.537669 147.998817 
L 327.73248 150.751818 
L 327.775771 151.095943 
L 327.927291 149.375317 
L 327.948936 149.719442 
L 327.992228 149.031192 
L 328.490657 145.934065 
L 328.512303 146.278191 
L 328.663828 147.310566 
L 328.685473 146.966441 
L 328.728764 147.654691 
L 328.901934 149.719442 
L 328.966872 150.407693 
L 328.988518 149.719442 
L 329.075102 148.342942 
L 329.118394 149.031192 
L 329.248268 150.407693 
L 329.421437 147.310566 
L 329.443083 147.310566 
L 329.572956 146.966441 
L 329.637894 149.031192 
L 329.724477 148.342942 
L 329.87618 146.966441 
L 329.897826 147.310566 
L 330.114737 151.095943 
L 330.158029 151.440068 
L 330.622255 144.557565 
L 330.6439 144.557565 
L 330.665546 143.869314 
L 330.709531 144.90169 
L 330.817774 146.966441 
L 330.861066 146.278191 
L 330.882713 146.278191 
L 331.034264 149.031192 
L 331.05591 149.031192 
L 331.294016 153.160694 
L 331.315662 153.160694 
L 331.53212 156.946071 
L 331.575413 156.946071 
L 331.640351 157.978447 
L 331.70529 157.290196 
L 332.162387 151.095943 
L 332.335554 153.160694 
L 338.580139 243.321491 
L 338.601784 243.321491 
L 339.600066 257.430623 
L 339.816524 257.430623 
L 339.946398 260.52775 
L 340.465897 260.52775 
L 340.595772 261.216 
L 387.852898 261.216 
L 387.852898 261.216 
" clip-path="url(#p715eb22ad0)" style="fill: none; stroke-dasharray: 5.55,2.4; stroke-dashoffset: 0; stroke: #000000; stroke-opacity: 0.7; stroke-width: 1.5"/>
   </g>
   <g id="patch_3">
    <path d="M 46.965625 273.312 
L 46.965625 7.2 
" style="fill: none; stroke: #000000; stroke-width: 0.8; stroke-linejoin: miter; stroke-linecap: square"/>
   </g>
   <g id="patch_4">
    <path d="M 404.085625 273.312 
L 404.085625 7.2 
" style="fill: none; stroke: #000000; stroke-width: 0.8; stroke-linejoin: miter; stroke-linecap: square"/>
   </g>
   <g id="patch_5">
    <path d="M 46.965625 273.312 
L 404.085625 273.312 
" style="fill: none; stroke: #000000; stroke-width: 0.8; stroke-linejoin: miter; stroke-linecap: square"/>
   </g>
   <g id="patch_6">
    <path d="M 46.965625 7.2 
L 404.085625 7.2 
" style="fill: none; stroke: #000000; stroke-width: 0.8; stroke-linejoin: miter; stroke-linecap: square"/>
   </g>
   <g id="legend_1">
    <g id="patch_7">
     <path d="M 271.391875 44.55625 
L 397.085625 44.55625 
Q 399.085625 44.55625 399.085625 42.55625 
L 399.085625 14.2 
Q 399.085625 12.2 397.085625 12.2 
L 271.391875 12.2 
Q 269.391875 12.2 269.391875 14.2 
L 269.391875 42.55625 
Q 269.391875 44.55625 271.391875 44.55625 
z
" style="fill: #ffffff; opacity: 0.8; stroke: #cccccc; stroke-linejoin: miter"/>
    </g>
    <g id="line2d_29">
     <path d="M 273.391875 20.298437 
L 283.391875 20.298437 
L 293.391875 20.298437 
" style="fill: none; stroke: #800080; stroke-width: 1.5; stroke-linecap: square"/>
    </g>
    <g id="text_15">
     <!-- Velocidade Modelo -->
     <g transform="translate(301.391875 23.798437) scale(0.1 -0.1)">
      <defs>
       <path id="DejaVuSans-56" d="M 1831 0 
L 50 4666 
L 709 4666 
L 2188 738 
L 3669 4666 
L 4325 4666 
L 2547 0 
L 1831 0 
z
" transform="scale(0.015625)"/>
       <path id="DejaVuSans-65" d="M 3597 1894 
L 3597 1613 
L 953 1613 
Q 991 1019 1311 708 
Q 1631 397 2203 397 
Q 2534 397 2845 478 
Q 3156 559 3463 722 
L 3463 178 
Q 3153 47 2828 -22 
Q 2503 -91 2169 -91 
Q 1331 -91 842 396 
Q 353 884 353 1716 
Q 353 2575 817 3079 
Q 1281 3584 2069 3584 
Q 2775 3584 3186 3129 
Q 3597 2675 3597 1894 
z
M 3022 2063 
Q 3016 2534 2758 2815 
Q 2500 3097 2075 3097 
Q 1594 3097 1305 2825 
Q 1016 2553 972 2059 
L 3022 2063 
z
" transform="scale(0.015625)"/>
       <path id="DejaVuSans-6c" d="M 603 4863 
L 1178 4863 
L 1178 0 
L 603 0 
L 603 4863 
z
" transform="scale(0.015625)"/>
       <path id="DejaVuSans-6f" d="M 1959 3097 
Q 1497 3097 1228 2736 
Q 959 2375 959 1747 
Q 959 1119 1226 758 
Q 1494 397 1959 397 
Q 2419 397 2687 759 
Q 2956 1122 2956 1747 
Q 2956 2369 2687 2733 
Q 2419 3097 1959 3097 
z
M 1959 3584 
Q 2709 3584 3137 3096 
Q 3566 2609 3566 1747 
Q 3566 888 3137 398 
Q 2709 -91 1959 -91 
Q 1206 -91 779 398 
Q 353 888 353 1747 
Q 353 2609 779 3096 
Q 1206 3584 1959 3584 
z
" transform="scale(0.015625)"/>
       <path id="DejaVuSans-63" d="M 3122 3366 
L 3122 2828 
Q 2878 2963 2633 3030 
Q 2388 3097 2138 3097 
Q 1578 3097 1268 2742 
Q 959 2388 959 1747 
Q 959 1106 1268 751 
Q 1578 397 2138 397 
Q 2388 397 2633 464 
Q 2878 531 3122 666 
L 3122 134 
Q 2881 22 2623 -34 
Q 2366 -91 2075 -91 
Q 1284 -91 818 406 
Q 353 903 353 1747 
Q 353 2603 823 3093 
Q 1294 3584 2113 3584 
Q 2378 3584 2631 3529 
Q 2884 3475 3122 3366 
z
" transform="scale(0.015625)"/>
       <path id="DejaVuSans-69" d="M 603 3500 
L 1178 3500 
L 1178 0 
L 603 0 
L 603 3500 
z
M 603 4863 
L 1178 4863 
L 1178 4134 
L 603 4134 
L 603 4863 
z
" transform="scale(0.015625)"/>
       <path id="DejaVuSans-64" d="M 2906 2969 
L 2906 4863 
L 3481 4863 
L 3481 0 
L 2906 0 
L 2906 525 
Q 2725 213 2448 61 
Q 2172 -91 1784 -91 
Q 1150 -91 751 415 
Q 353 922 353 1747 
Q 353 2572 751 3078 
Q 1150 3584 1784 3584 
Q 2172 3584 2448 3432 
Q 2725 3281 2906 2969 
z
M 947 1747 
Q 947 1113 1208 752 
Q 1469 391 1925 391 
Q 2381 391 2643 752 
Q 2906 1113 2906 1747 
Q 2906 2381 2643 2742 
Q 2381 3103 1925 3103 
Q 1469 3103 1208 2742 
Q 947 2381 947 1747 
z
" transform="scale(0.015625)"/>
       <path id="DejaVuSans-61" d="M 2194 1759 
Q 1497 1759 1228 1600 
Q 959 1441 959 1056 
Q 959 750 1161 570 
Q 1363 391 1709 391 
Q 2188 391 2477 730 
Q 2766 1069 2766 1631 
L 2766 1759 
L 2194 1759 
z
M 3341 1997 
L 3341 0 
L 2766 0 
L 2766 531 
Q 2569 213 2275 61 
Q 1981 -91 1556 -91 
Q 1019 -91 701 211 
Q 384 513 384 1019 
Q 384 1609 779 1909 
Q 1175 2209 1959 2209 
L 2766 2209 
L 2766 2266 
Q 2766 2663 2505 2880 
Q 2244 3097 1772 3097 
Q 1472 3097 1187 3025 
Q 903 2953 641 2809 
L 641 3341 
Q 956 3463 1253 3523 
Q 1550 3584 1831 3584 
Q 2591 3584 2966 3190 
Q 3341 2797 3341 1997 
z
" transform="scale(0.015625)"/>
       <path id="DejaVuSans-20" transform="scale(0.015625)"/>
      </defs>
      <use xlink:href="#DejaVuSans-56"/>
      <use xlink:href="#DejaVuSans-65" x="60.658203"/>
      <use xlink:href="#DejaVuSans-6c" x="122.181641"/>
      <use xlink:href="#DejaVuSans-6f" x="149.964844"/>
      <use xlink:href="#DejaVuSans-63" x="211.146484"/>
      <use xlink:href="#DejaVuSans-69" x="266.126953"/>
      <use xlink:href="#DejaVuSans-64" x="293.910156"/>
      <use xlink:href="#DejaVuSans-61" x="357.386719"/>
      <use xlink:href="#DejaVuSans-64" x="418.666016"/>
      <use xlink:href="#DejaVuSans-65" x="482.142578"/>
      <use xlink:href="#DejaVuSans-20" x="543.666016"/>
      <use xlink:href="#DejaVuSans-4d" x="575.453125"/>
      <use xlink:href="#DejaVuSans-6f" x="661.732422"/>
      <use xlink:href="#DejaVuSans-64" x="722.914062"/>
      <use xlink:href="#DejaVuSans-65" x="786.390625"/>
      <use xlink:href="#DejaVuSans-6c" x="847.914062"/>
      <use xlink:href="#DejaVuSans-6f" x="875.697266"/>
     </g>
    </g>
    <g id="line2d_30">
     <path d="M 273.391875 34.976562 
L 283.391875 34.976562 
L 293.391875 34.976562 
" style="fill: none; stroke-dasharray: 5.55,2.4; stroke-dashoffset: 0; stroke: #000000; stroke-opacity: 0.7; stroke-width: 1.5"/>
    </g>
    <g id="text_16">
     <!-- Velocidade Real -->
     <g transform="translate(301.391875 38.476562) scale(0.1 -0.1)">
      <use xlink:href="#DejaVuSans-56"/>
      <use xlink:href="#DejaVuSans-65" x="60.658203"/>
      <use xlink:href="#DejaVuSans-6c" x="122.181641"/>
      <use xlink:href="#DejaVuSans-6f" x="149.964844"/>
      <use xlink:href="#DejaVuSans-63" x="211.146484"/>
      <use xlink:href="#DejaVuSans-69" x="266.126953"/>
      <use xlink:href="#DejaVuSans-64" x="293.910156"/>
      <use xlink:href="#DejaVuSans-61" x="357.386719"/>
      <use xlink:href="#DejaVuSans-64" x="418.666016"/>
      <use xlink:href="#DejaVuSans-65" x="482.142578"/>
      <use xlink:href="#DejaVuSans-20" x="543.666016"/>
      <use xlink:href="#DejaVuSans-52" x="575.453125"/>
      <use xlink:href="#DejaVuSans-65" x="640.435547"/>
      <use xlink:href="#DejaVuSans-61" x="701.958984"/>
      <use xlink:href="#DejaVuSans-6c" x="763.238281"/>
     </g>
    </g>
   </g>
  </g>
 </g>
 <defs>
  <clipPath id="p715eb22ad0">
   <rect x="46.965625" y="7.2" width="357.12" height="266.112"/>
  </clipPath>
 </defs>
</svg>
